<?xml version="1.0" encoding="utf-8"?>
<!-- Generator: Adobe Illustrator 27.5.0, SVG Export Plug-In . SVG Version: 6.00 Build 0)  -->
<svg version="1.1" xmlns="http://www.w3.org/2000/svg" xmlns:xlink="http://www.w3.org/1999/xlink" x="0px" y="0px"
	 viewBox="0 0 750 500" style="enable-background:new 0 0 750 500;" xml:space="preserve">
<g id="BACKGROUND">
	<rect style="fill:#FFFFFF;" width="750" height="500"/>
</g>
<g id="OBJECTS">
	<g>
		<linearGradient id="SVGID_1_" gradientUnits="userSpaceOnUse" x1="344.8402" y1="143.2716" x2="404.256" y2="460.3955">
			<stop  offset="0" style="stop-color:#E4F2FF"/>
			<stop  offset="1" style="stop-color:#DEB5FF"/>
		</linearGradient>
		<path style="fill:url(#SVGID_1_);" d="M575.438,390.476c-4.535,3.856-9.237,7.628-14.092,11.276
			c-0.943,0.707-1.886,1.415-2.843,2.108c-0.042,0.042-0.083,0.069-0.111,0.083c-3.495,2.566-7.06,5.076-10.694,7.503
			c-11.789,7.892-24.216,15.007-36.949,20.999c-7.198,3.384-14.563,6.449-22.081,9.196c-4.286,1.581-8.627,3.051-13.01,4.438
			c-61.886,19.529-131.928,19.667-193.246,6.436c-21.193-4.563-41.346-10.735-59.765-18.266
			c-17.074-6.949-32.663-15.076-46.2-24.161c-3.564-2.385-6.977-4.841-10.25-7.351c-18.086-13.925-31.526-29.778-38.641-46.935
			c-36.81-88.78-32.067-157.269,25.465-182.983c57.531-25.714,82.386-21.748,121.013-76.88
			c38.627-55.132,121.72-74.452,160.348-41.526c31.9,27.199,53.551,79.473,80.25,108.364c5.617,6.089,11.47,11.151,17.698,14.702
			c35.715,20.416,93.163,64.508,103.898,106.727C643.552,313,616.548,355.469,575.438,390.476z"/>
		
			<linearGradient id="SVGID_00000079465247815978374730000017034269920173571007_" gradientUnits="userSpaceOnUse" x1="301.1694" y1="457.2219" x2="583.9324" y2="97.862">
			<stop  offset="0" style="stop-color:#E4F2FF"/>
			<stop  offset="1" style="stop-color:#DEB5FF"/>
		</linearGradient>
		<path style="fill:url(#SVGID_00000079465247815978374730000017034269920173571007_);" d="M575.438,390.476
			c-4.535,3.856-9.237,7.628-14.092,11.276c-0.943,0.707-1.886,1.415-2.843,2.108c-0.042,0.042-0.083,0.069-0.111,0.083
			c-3.495,2.566-7.06,5.076-10.694,7.503c-11.789,7.892-24.216,15.007-36.949,20.999c-7.198,3.384-14.563,6.449-22.081,9.196
			c-4.286,1.581-8.627,3.051-13.01,4.438c-61.886,19.529-131.928,19.667-193.246,6.436c-21.193-4.563-41.346-10.735-59.765-18.266
			c-17.074-6.949-32.663-15.076-46.2-24.161c-6.727-27.628-8.072-62.955,11.304-97.254c40.777-72.136,144.106-55.673,214.328-70.43
			c50.43-10.596,83.593-50.208,112.553-79.626c5.617,6.089,11.47,11.151,17.698,14.702c35.715,20.416,93.163,64.508,103.898,106.727
			C643.552,313,616.548,355.469,575.438,390.476z"/>
	</g>
	<g>
		<defs>
			<path id="XMLID_1_" d="M636.229,284.206c-10.735-42.219-68.183-86.311-103.898-106.727c-6.227-3.551-12.081-8.613-17.698-14.702
				c-26.699-28.891-48.35-81.165-80.25-108.364c-38.627-32.927-121.72-13.606-160.348,41.526
				c-38.627,55.132-63.482,51.165-121.013,76.88c-57.531,25.714-62.275,94.203-25.465,182.983
				c7.115,17.157,20.555,33.01,38.641,46.935c3.273,2.51,6.685,4.965,10.25,7.351c13.537,9.085,29.127,17.212,46.2,24.161
				c18.419,7.531,38.572,13.703,59.765,18.266c61.318,13.232,131.36,13.093,193.246-6.436c4.383-1.387,8.724-2.857,13.01-4.438
				c7.517-2.746,14.882-5.811,22.081-9.196c12.732-5.992,25.16-13.107,36.949-20.999c3.634-2.427,7.198-4.938,10.694-7.503
				c0.028-0.014,0.069-0.042,0.111-0.083c0.957-0.694,1.9-1.401,2.843-2.108c4.854-3.648,9.556-7.42,14.092-11.276
				C616.548,355.469,643.552,313,636.229,284.206z"/>
		</defs>
		<clipPath id="XMLID_00000065764557837467313030000016594890348839058603_">
			<use xlink:href="#XMLID_1_"  style="overflow:visible;"/>
		</clipPath>
		<g style="clip-path:url(#XMLID_00000065764557837467313030000016594890348839058603_);">
			
				<linearGradient id="SVGID_00000026874208119365263530000003879410520648536220_" gradientUnits="userSpaceOnUse" x1="437.6769" y1="349.4362" x2="435.5292" y2="455.2099">
				<stop  offset="0" style="stop-color:#0C45AD"/>
				<stop  offset="1" style="stop-color:#A1C7FF"/>
			</linearGradient>
			<path style="fill:url(#SVGID_00000026874208119365263530000003879410520648536220_);" d="M504.079,395.773
				c-4.216,35.437-21.942,61.082-21.942,61.082l-28.35,1.013l-1.997,0.069l-17.836,0.638l-1.387,0.042l-6.616,0.236l-1.456,0.056
				l-55.562,1.983c0,0-8.239-89.834,35.756-113.44C448.669,323.845,508.295,360.336,504.079,395.773z"/>
			<g>
				<path style="fill:#C7F2FF;" d="M489.085,392.486l-55.132,58.322v7.767l-1.387,0.042v-34.854l-13.606-31.47
					c-0.152-0.347,0-0.763,0.361-0.915c0.347-0.153,0.749,0.014,0.901,0.361l12.344,28.53v-59.39c0-0.388,0.305-0.693,0.694-0.693
					c0.374,0,0.693,0.305,0.693,0.693v87.92l15.839-16.768l6.962-45.229c0.056-0.375,0.43-0.624,0.791-0.569
					c0.375,0.055,0.638,0.402,0.583,0.791l-6.658,43.246l36.602-38.724c0.263-0.277,0.707-0.291,0.985-0.028
					C489.335,391.779,489.349,392.209,489.085,392.486z"/>
				<path style="fill:#C7F2FF;" d="M476.852,433.915l-23.065,23.953l-1.997,0.069l24.064-24.993
					c0.277-0.277,0.707-0.277,0.985-0.014C477.116,433.194,477.13,433.637,476.852,433.915z"/>
				<path style="fill:#C7F2FF;" d="M425.951,458.852l-1.456,0.056l-8.072-22.607L386.2,417.299
					c-0.319-0.208-0.416-0.638-0.208-0.957c0.194-0.319,0.624-0.416,0.957-0.222l28.71,18.058L400.68,392.25
					c-0.125-0.361,0.069-0.763,0.43-0.888c0.361-0.125,0.749,0.055,0.888,0.416L425.951,458.852z"/>
			</g>
		</g>
		<g style="clip-path:url(#XMLID_00000065764557837467313030000016594890348839058603_);">
			
				<linearGradient id="SVGID_00000044889753389861175740000009599993554348344968_" gradientUnits="userSpaceOnUse" x1="325.6443" y1="384.8581" x2="325.115" y2="474.8429">
				<stop  offset="0" style="stop-color:#0C45AD"/>
				<stop  offset="1" style="stop-color:#A1C7FF"/>
			</linearGradient>
			<path style="fill:url(#SVGID_00000044889753389861175740000009599993554348344968_);" d="M387.079,479.056l-56.62-8.395
				l-2.53-0.383l-4.881-0.725l-1.367-0.191l-6.344-0.943l-1.914-0.287l-16.285-2.42h-0.014l-2.967-0.438l-32.829-4.868
				c0,0-16.695-50.29,21.699-66.889c38.408-16.586,99.828,10.747,107.239,36.234C397.675,455.237,387.079,479.056,387.079,479.056z"
				/>
			<g>
				<path style="fill:#C7F2FF;" d="M315.336,468.418l-1.914-0.287L273.66,414.86c-0.219-0.314-0.164-0.738,0.15-0.957
					c0.301-0.233,0.725-0.164,0.957,0.137l31.393,42.086l-1.531-51.343c-0.014-0.369,0.287-0.684,0.656-0.697
					c0.383,0.014,0.697,0.287,0.711,0.656l1.586,53.284L315.336,468.418z"/>
				<path style="fill:#C7F2FF;" d="M384.932,446.869l-32.583,14.234l23.217,2.598c0.369,0.041,0.643,0.383,0.602,0.752
					c-0.041,0.355-0.342,0.615-0.684,0.615c-0.027,0-0.055,0-0.082-0.014l-25.569-2.858l-19.375,8.464l-2.53-0.383l8.286-3.624
					l22.246-34.292c0.205-0.314,0.629-0.397,0.943-0.191c0.315,0.205,0.41,0.629,0.205,0.943l-21.111,32.542l45.887-20.045
					c0.342-0.15,0.752,0,0.902,0.355C385.438,446.309,385.274,446.719,384.932,446.869z"/>
				<path style="fill:#C7F2FF;" d="M343.543,408.078l-20.496,61.474l-1.367-0.191l9.161-27.51l-7.917-22.684
					c-0.123-0.369,0.068-0.752,0.424-0.875c0.356-0.123,0.738,0.055,0.861,0.41l7.342,21.029l10.693-32.077
					c0.109-0.369,0.506-0.56,0.861-0.437C343.461,407.34,343.653,407.723,343.543,408.078z"/>
				<path style="fill:#C7F2FF;" d="M297.123,465.711l-2.967-0.438l-26.034-18.486c-0.301-0.205-0.369-0.643-0.15-0.943
					c0.219-0.315,0.643-0.383,0.943-0.164L297.123,465.711z"/>
			</g>
		</g>
	</g>
	<g>
		<g>
			<g>
				<path style="fill:#FFFFFF;" d="M425.694,302.877l-0.639-0.271c13.298-31.459,18.654-59.721,15.916-84.002l0.688-0.077
					C444.411,242.927,439.039,271.307,425.694,302.877z"/>
				<path style="fill:#FFFFFF;" d="M441.462,219.965c0,0-10.809-7.256-7.22-12.691c3.904-5.911,8.806-4.037,10.391,0.865
					C446.22,213.041,441.462,219.965,441.462,219.965z"/>
				<path style="fill:#FFFFFF;" d="M441.914,235.845c0,0-12.63,3.157-14.257-3.15c-1.77-6.859,2.907-9.24,7.608-7.131
					C439.965,227.672,441.914,235.845,441.914,235.845z"/>
				<path style="fill:#FFFFFF;" d="M441.914,235.845c0,0,2.466-12.783,8.87-11.598c6.965,1.289,7.152,6.534,3.256,9.906
					C450.145,237.525,441.914,235.845,441.914,235.845z"/>
				<path style="fill:#FFFFFF;" d="M439.718,255.88c0,0-12.971,1.108-13.575-5.377c-0.656-7.053,4.34-8.66,8.645-5.831
					C439.094,247.502,439.718,255.88,439.718,255.88z"/>
				<path style="fill:#FFFFFF;" d="M439.718,255.88c0,0,4.467-12.228,10.602-10.04c6.672,2.38,6.022,7.588,1.64,10.298
					S439.718,255.88,439.718,255.88z"/>
				<path style="fill:#FFFFFF;" d="M435.86,272.869c0,0-13.014-0.322-12.903-6.835c0.122-7.083,5.264-8.132,9.233-4.846
					C436.158,264.474,435.86,272.869,435.86,272.869z"/>
				<path style="fill:#FFFFFF;" d="M435.86,272.869c0,0,5.782-11.664,11.64-8.815c6.37,3.098,5.152,8.203,0.5,10.415
					C443.346,276.682,435.86,272.869,435.86,272.869z"/>
				<path style="fill:#FFFFFF;" d="M430.723,289.052c0,0-12.952-1.312-12.345-7.797c0.661-7.053,5.867-7.707,9.575-4.13
					C431.66,280.703,430.723,289.052,430.723,289.052z"/>
				<path style="fill:#FFFFFF;" d="M430.723,289.052c0,0,6.653-11.19,12.277-7.904c6.116,3.574,4.513,8.571-0.295,10.423
					C437.897,293.423,430.723,289.052,430.723,289.052z"/>
			</g>
			<g>
				<path style="fill:#FFFFFF;" d="M340.202,310.435c-10.307-24.38-14.455-46.298-12.329-65.146l0.689,0.079
					c-2.112,18.727,2.019,40.527,12.279,64.796L340.202,310.435z"/>
				<path style="fill:#FFFFFF;" d="M328.104,246.409c0,0,8.343-5.601,5.572-9.796c-3.013-4.562-6.797-3.116-8.021,0.668
					C324.431,241.064,328.104,246.409,328.104,246.409z"/>
				<path style="fill:#FFFFFF;" d="M327.755,258.665c0,0,9.749,2.437,11.004-2.432c1.366-5.294-2.244-7.132-5.872-5.504
					C329.259,252.357,327.755,258.665,327.755,258.665z"/>
				<path style="fill:#FFFFFF;" d="M327.755,258.665c0,0-1.903-9.866-6.846-8.952c-5.376,0.995-5.52,5.043-2.514,7.646
					C321.401,259.962,327.755,258.665,327.755,258.665z"/>
				<path style="fill:#FFFFFF;" d="M329.449,274.129c0,0,10.012,0.855,10.478-4.151c0.507-5.444-3.349-6.684-6.672-4.5
					C329.931,267.663,329.449,274.129,329.449,274.129z"/>
				<path style="fill:#FFFFFF;" d="M329.449,274.129c0,0-3.448-9.438-8.183-7.749c-5.15,1.837-4.648,5.857-1.266,7.948
					C323.383,276.42,329.449,274.129,329.449,274.129z"/>
				<path style="fill:#FFFFFF;" d="M332.428,287.243c0,0,10.045-0.249,9.959-5.275c-0.094-5.467-4.063-6.276-7.126-3.741
					C332.197,280.762,332.428,287.243,332.428,287.243z"/>
				<path style="fill:#FFFFFF;" d="M332.428,287.243c0,0-4.463-9.003-8.984-6.804c-4.917,2.391-3.977,6.331-0.386,8.039
					C326.649,290.186,332.428,287.243,332.428,287.243z"/>
				<path style="fill:#FFFFFF;" d="M336.393,299.733c0,0,9.997-1.013,9.528-6.018c-0.51-5.444-4.529-5.949-7.39-3.187
					C335.669,293.289,336.393,299.733,336.393,299.733z"/>
				<path style="fill:#FFFFFF;" d="M336.393,299.733c0,0-5.135-8.637-9.476-6.1c-4.721,2.758-3.483,6.616,0.227,8.045
					C330.855,303.107,336.393,299.733,336.393,299.733z"/>
			</g>
		</g>
		<g>
			
				<ellipse transform="matrix(0.9722 -0.2343 0.2343 0.9722 -10.408 80.7564)" style="fill:#FFFFFF;" cx="334.672" cy="84.182" rx="9.366" ry="9.367"/>
			<circle style="fill:#FFFFFF;" cx="385.007" cy="54.49" r="3.884"/>
			<path style="fill:#FFFFFF;" d="M472.876,145.523c0,1.11-0.9,2.009-2.01,2.009c-1.11,0-2.009-0.9-2.009-2.009
				c0-1.11,0.9-2.01,2.009-2.01C471.977,143.513,472.876,144.413,472.876,145.523z"/>
			<path style="fill:#FFFFFF;" d="M371.939,229.082c0,1.11-0.9,2.01-2.009,2.01c-1.11,0-2.01-0.9-2.01-2.01
				c0-1.11,0.9-2.01,2.01-2.01C371.039,227.073,371.939,227.972,371.939,229.082z"/>
			<path style="fill:none;stroke:#FFFFFF;stroke-width:0.669;stroke-miterlimit:10;" d="M308.228,217.629
				c0,2.57-2.083,4.653-4.653,4.653c-2.57,0-4.653-2.083-4.653-4.653c0-2.57,2.083-4.653,4.653-4.653
				C306.145,212.975,308.228,215.059,308.228,217.629z"/>
			<path style="fill:none;stroke:#FFFFFF;stroke-width:0.669;stroke-miterlimit:10;" d="M433.641,94.143
				c0,1.977-1.603,3.579-3.579,3.579c-1.977,0-3.579-1.603-3.579-3.579c0-1.977,1.603-3.579,3.579-3.579
				C432.038,90.564,433.641,92.167,433.641,94.143z"/>
			<path style="fill:none;stroke:#FFFFFF;stroke-width:0.669;stroke-miterlimit:10;" d="M466.928,195.795
				c0,1.384-1.122,2.506-2.506,2.506c-1.384,0-2.505-1.122-2.505-2.506c0-1.384,1.122-2.506,2.505-2.506
				C465.806,193.289,466.928,194.411,466.928,195.795z"/>
			<circle style="fill:#FFFFFF;" cx="398.922" cy="240.756" r="6.085"/>
			<path style="fill:#FFFFFF;" d="M417.892,218.206c0,2.174-1.763,3.937-3.937,3.937s-3.937-1.763-3.937-3.937
				c0-2.174,1.763-3.937,3.937-3.937S417.892,216.032,417.892,218.206z"/>
		</g>
	</g>
	<g>
		<g>
			
				<linearGradient id="SVGID_00000127025475581860564890000015107960753987385739_" gradientUnits="userSpaceOnUse" x1="578.7839" y1="152.6941" x2="527.7631" y2="278.8403" gradientTransform="matrix(-0.3407 -0.9402 -0.9402 0.3407 1010.4412 725.858)">
				<stop  offset="0" style="stop-color:#5A86D7"/>
				<stop  offset="1" style="stop-color:#825DD6"/>
			</linearGradient>
			<path style="fill:url(#SVGID_00000127025475581860564890000015107960753987385739_);" d="M551.497,358.079
				c1.013,0.456,91.45-44.021,113.34-88.757c21.89-44.736,15.818-65.184,15.818-65.184s-99.208,50.006-130.451,108.57
				C550.205,312.708,527.671,347.363,551.497,358.079z"/>
			
				<linearGradient id="SVGID_00000153692868266951900210000005791117788139983282_" gradientUnits="userSpaceOnUse" x1="526.0336" y1="285.9131" x2="572.6353" y2="168.0693" gradientTransform="matrix(-0.3407 -0.9402 -0.9402 0.3407 1010.4412 725.858)">
				<stop  offset="0.0112" style="stop-color:#FFFFFF"/>
				<stop  offset="1" style="stop-color:#FFFFFF;stop-opacity:0"/>
			</linearGradient>
			<path style="fill:url(#SVGID_00000153692868266951900210000005791117788139983282_);" d="M548.985,347.997
				c10.087-9.294,20.06-18.68,29.982-28.132c9.923-9.448,19.75-18.997,29.492-28.631c9.752-9.624,19.361-19.395,28.791-29.335
				c9.405-9.956,18.711-20.042,27.135-30.849c-8.65,10.623-18.157,20.496-27.763,30.242c-9.629,9.728-19.433,19.282-29.378,28.687
				c-9.936,9.415-19.953,18.744-30.065,27.97c-10.108,9.227-20.277,18.399-30.529,27.448L548.985,347.997z"/>
		</g>
		<g>
			
				<linearGradient id="SVGID_00000124128411113098752570000001567617636647559339_" gradientUnits="userSpaceOnUse" x1="564.1196" y1="149.0834" x2="559.2875" y2="290.8229">
				<stop  offset="0" style="stop-color:#699DFB"/>
				<stop  offset="1" style="stop-color:#986DFA"/>
			</linearGradient>
			<path style="fill:url(#SVGID_00000124128411113098752570000001567617636647559339_);" d="M538.873,320.649
				c-0.84-0.502-14.336-88.212,6.919-126.571c21.256-38.359,39.077-44.287,39.077-44.287s13.928,96.83-12.593,148.913
				C572.276,298.704,558.622,332.445,538.873,320.649z"/>
			
				<linearGradient id="SVGID_00000029007003055836503640000011048736722325303995_" gradientUnits="userSpaceOnUse" x1="534.6128" y1="312.0359" x2="575.6464" y2="208.2726" gradientTransform="matrix(0.9659 -0.2591 0.2591 0.9659 -42.6462 135.0786)">
				<stop  offset="0.0112" style="stop-color:#FFFFFF"/>
				<stop  offset="1" style="stop-color:#FFFFFF;stop-opacity:0"/>
			</linearGradient>
			<path style="fill:url(#SVGID_00000029007003055836503640000011048736722325303995_);" d="M547.417,317.379
				c1.623-11.967,3.37-23.9,5.189-35.828c1.817-11.927,3.755-23.836,5.796-35.726c2.03-11.892,4.237-23.756,6.658-35.575
				c2.445-11.809,5.033-23.613,8.586-35.143c-3.307,11.601-5.64,23.442-7.831,35.29c-2.167,11.856-4.12,23.751-5.894,35.673
				c-1.786,11.92-3.469,23.855-5.03,35.806c-1.564,11.949-3.056,23.915-4.42,35.878L547.417,317.379z"/>
		</g>
		<g>
			
				<linearGradient id="SVGID_00000088856010653366083460000004309356940359441333_" gradientUnits="userSpaceOnUse" x1="626.7373" y1="195.5022" x2="558.5521" y2="364.0861">
				<stop  offset="0" style="stop-color:#699DFB"/>
				<stop  offset="1" style="stop-color:#986DFA"/>
			</linearGradient>
			<path style="fill:url(#SVGID_00000088856010653366083460000004309356940359441333_);" d="M524.286,400.625
				c-1.034-1.066,13.671-134.944,59.912-182.815c46.241-47.872,74.696-49.553,74.696-49.553s-17.658,147.416-77.014,213.335
				C581.88,381.591,548.598,425.682,524.286,400.625z"/>
			
				<linearGradient id="SVGID_00000050648258380190158590000004313841883217600674_" gradientUnits="userSpaceOnUse" x1="556.241" y1="373.5384" x2="618.5203" y2="216.0501">
				<stop  offset="0.0112" style="stop-color:#FFFFFF"/>
				<stop  offset="1" style="stop-color:#FFFFFF;stop-opacity:0"/>
			</linearGradient>
			<path style="fill:url(#SVGID_00000050648258380190158590000004313841883217600674_);" d="M538.097,399.192
				c7.084-16.905,14.337-33.709,21.695-50.479c7.353-16.769,14.876-33.464,22.544-50.091c7.651-16.634,15.552-33.156,23.749-49.529
				c8.227-16.349,16.662-32.635,26.405-48.139c-9.409,15.705-17.485,32.145-25.356,48.651
				c-7.839,16.527-15.378,33.195-22.667,49.973c-7.306,16.77-14.465,33.604-21.453,50.509c-6.991,16.9-13.884,33.854-20.587,50.854
				L538.097,399.192z"/>
		</g>
	</g>
	<g>
		<g>
			
				<linearGradient id="SVGID_00000083807338320718941860000014642511564598227843_" gradientUnits="userSpaceOnUse" x1="181.7513" y1="222.2217" x2="141.9158" y2="103.8699">
				<stop  offset="0" style="stop-color:#ADFFCF"/>
				<stop  offset="1" style="stop-color:#8EC8F1"/>
			</linearGradient>
			<path style="fill:url(#SVGID_00000083807338320718941860000014642511564598227843_);" d="M195.234,269.158
				c-6.269,0.694-14.951-1.401-23.592-4.646c-0.458-0.166-0.929-0.347-1.387-0.527c-13.19-5.132-26.033-12.76-29.861-17.046
				c0,0-33.287-32.885-18.974-52.58c14.327-19.681,21.845-9.293,31.151-14.66c9.307-5.382,3.218-49.584,3.925-69.002
				c0.721-19.418,22.913-44.119,37.587-26.574c14.674,17.531-7.878,85.326-1.789,96.533c6.089,11.207,31.249,0.111,31.734,29.82
				C224.513,240.184,211.42,267.368,195.234,269.158z"/>
			<path style="fill:#FFFFFF;" d="M202.793,207.299c-6.214,18.058-28.877,44.577-30.971,47.004
				c-0.097,3.606-0.152,7.032-0.18,10.208c-0.458-0.166-0.929-0.347-1.387-0.527c0.028-3.093,0.097-6.408,0.18-9.903
				c0.194-7.42,0.485-15.631,0.874-24.286c-13.606-9.154-25.132-30.028-25.617-30.929c-0.18-0.333-0.056-0.749,0.277-0.929
				c0.333-0.194,0.763-0.069,0.943,0.263c0.111,0.222,11.443,20.735,24.466,29.959c2.399-53.398,7.711-122.497,7.781-123.426
				c0.042-0.374,0.361-0.666,0.749-0.638c0.388,0.042,0.666,0.375,0.638,0.749c-0.083,1.068-7.198,93.676-8.669,147.255
				c5.09-6.02,24.064-29.126,29.612-45.257c0.111-0.361,0.513-0.555,0.874-0.43C202.724,206.536,202.918,206.938,202.793,207.299z"
				/>
		</g>
		<g>
			
				<linearGradient id="SVGID_00000168119001190630360750000010815954458953053845_" gradientUnits="userSpaceOnUse" x1="145.2658" y1="309.5268" x2="95.8734" y2="162.7814">
				<stop  offset="0" style="stop-color:#ADFFCF"/>
				<stop  offset="1" style="stop-color:#8EC8F1"/>
			</linearGradient>
			<path style="fill:url(#SVGID_00000168119001190630360750000010815954458953053845_);" d="M185.006,297.729
				c-1.775,11.845-7.503,32.83-14.064,49.21c-0.236,0.582-0.471,1.165-0.707,1.734c-5.132,12.413-10.707,21.761-15.298,21.678
				c-10.735-0.18-27.379-14.549-27.379-14.549c-1.715-2.45-8.058-23.981-31.678-42.927c-23.62-18.946-37.49-48.544-18.211-52.538
				c19.293-3.994,33.246,17.934,36.464,0.804c3.232-17.143-38.156-61.041-31.679-91.734c4.3-20.347,17.726-33.606,37.046-14.938
				c19.334,18.655,15.035,61.179,25.243,67.837c10.194,6.658,12.885-19.903,30.056-6.089
				C191.983,230.045,188.224,276.3,185.006,297.729z"/>
			<path style="fill:#FFFFFF;" d="M170.942,346.939c-0.236,0.582-0.471,1.165-0.707,1.734c-4.425-9.293-9.029-20-13.648-31.429
				c-31.04-10.624-66.436-36.866-66.796-37.143c-0.305-0.222-0.361-0.652-0.139-0.971c0.236-0.305,0.666-0.361,0.971-0.139
				c0.347,0.263,34.73,25.742,65.271,36.533c-0.555-1.387-1.11-2.788-1.664-4.202c-0.055-0.069-0.097-0.166-0.111-0.264
				c-22.344-56.45-44.064-126.394-44.355-127.31c-0.111-0.361,0.097-0.749,0.458-0.874c0.374-0.111,0.763,0.097,0.874,0.458
				c0.277,0.902,21.47,69.141,43.495,125.146c2.233-11.082,11.595-58.946,10.901-76.963c-0.014-0.388,0.277-0.707,0.666-0.721
				c0.374-0.014,0.694,0.277,0.721,0.666c0.763,19.861-10.527,75.354-11.345,79.39C160.72,323.971,165.949,336.356,170.942,346.939z
				"/>
		</g>
	</g>
	<g>
		<path style="fill:#FFFFFF;" d="M426.514,159.688c-0.426-21.854-18.487-39.224-40.341-38.798
			c-21.854,0.426-39.224,18.487-38.798,40.341c0.132,6.742,1.946,13.055,5.028,18.553c-3.68,5.106-10.936,12.947-21.221,13.734
			c0,0,17.828,4.694,31.496-1.801c6.903,5.366,15.616,8.496,25.038,8.312C409.57,199.603,426.94,181.542,426.514,159.688z"/>
		
			<linearGradient id="SVGID_00000125567550692250554780000006546858409252312751_" gradientUnits="userSpaceOnUse" x1="365.0387" y1="143.7627" x2="435.262" y2="143.7627" gradientTransform="matrix(0.9995 0.0326 -0.0326 0.9995 6.7827 -11.4419)">
			<stop  offset="0" style="stop-color:#912785"/>
			<stop  offset="1" style="stop-color:#EE3C97"/>
		</linearGradient>
		<path style="fill:url(#SVGID_00000125567550692250554780000006546858409252312751_);" d="M366.608,154.715
			c0,0,14.094,6.919,19.98,21.384c0,0,23.259-36.661,50.954-41.959l-6.016-19.193c0,0-35.755,22.86-44.94,46.692
			c0,0-10.423-15.918-18.422-16.617L366.608,154.715z"/>
	</g>
	<g>
		<g>
			<g>
				
					<linearGradient id="SVGID_00000080917089901710876770000007972180168094122373_" gradientUnits="userSpaceOnUse" x1="235.0708" y1="251.5611" x2="239.6344" y2="210.489">
					<stop  offset="0.016" style="stop-color:#EEC0A8"/>
					<stop  offset="1" style="stop-color:#E59393"/>
				</linearGradient>
				<path style="fill:url(#SVGID_00000080917089901710876770000007972180168094122373_);" d="M259.903,226.689
					c-0.832,3.384-1.359,6.962-1.11,10.18c0,0-1.068,14.23-16.38,13.149c-15.298-1.068-29.307-15.617-30.083-24.716
					c0,0,4.674-7.601,8.322-15.201c1.997-4.119,3.676-8.225,4.161-11.151l40.222,13.87
					C265.034,212.819,261.719,219.31,259.903,226.689z"/>
				
					<linearGradient id="SVGID_00000162335084473246730720000017745052518947453353_" gradientUnits="userSpaceOnUse" x1="255.4133" y1="231.5087" x2="237.159" y2="203.0535">
					<stop  offset="0" style="stop-color:#FEB3A3"/>
					<stop  offset="1" style="stop-color:#B66073"/>
				</linearGradient>
				<path style="fill:url(#SVGID_00000162335084473246730720000017745052518947453353_);" d="M265.034,212.819
					c0,0-3.315,6.491-5.132,13.87c-5.063,2.705-10.652,5.16-15.604,6.158c-9.431,1.886-18.863-13.454-23.648-22.746
					c1.997-4.119,3.676-8.225,4.161-11.151L265.034,212.819z"/>
			</g>
			<g>
				
					<linearGradient id="SVGID_00000037660265838519502700000010359460935385008281_" gradientUnits="userSpaceOnUse" x1="283.5523" y1="179.6915" x2="287.8598" y2="179.6915">
					<stop  offset="0" style="stop-color:#E2807E"/>
					<stop  offset="1" style="stop-color:#B66073"/>
				</linearGradient>
				<path style="fill:url(#SVGID_00000037660265838519502700000010359460935385008281_);" d="M284.547,171.641
					c0,0,2.582-0.562,3.229,1.681c0.647,2.243-2.66,14.484-2.66,14.484S282.014,176.536,284.547,171.641z"/>
				
					<linearGradient id="SVGID_00000061458108061238709760000006155719362036214411_" gradientUnits="userSpaceOnUse" x1="211.5312" y1="147.1961" x2="207.0571" y2="195.5163">
					<stop  offset="0" style="stop-color:#421F5A"/>
					<stop  offset="1" style="stop-color:#342D7A"/>
				</linearGradient>
				<path style="fill:url(#SVGID_00000061458108061238709760000006155719362036214411_);" d="M205.935,149.826
					c0,0-1.328,16.164-1.251,21.123c0.076,4.959,3.438,23.063,4.344,24.097c0.905,1.035,3.104,3.491,3.104,3.491l3.879-48.712
					l-5.453-2.721L205.935,149.826z"/>
				
					<linearGradient id="SVGID_00000144295799855414977280000008827932805814516137_" gradientUnits="userSpaceOnUse" x1="248.4585" y1="195.5253" x2="248.4585" y2="143.9857">
					<stop  offset="0.016" style="stop-color:#EEC0A8"/>
					<stop  offset="1" style="stop-color:#E59393"/>
				</linearGradient>
				<path style="fill:url(#SVGID_00000144295799855414977280000008827932805814516137_);" d="M289.695,150.017
					c0.18,6.741-1.983,13.676-3.634,21.11c-0.111,0.485-0.208,0.957-0.291,1.415c-1.248,6.352-0.999,11.221-0.777,15.881
					c0.139,3.509,0.277,6.921-0.278,10.763c-1.331,9.348-28.058,30.735-37.406,28.058c-9.362-2.663-32.081-20.042-34.744-26.727
					c-2.677-6.671-5.354-42.76-5.354-42.76c0-14.688,6.685-26.727,21.387-37.407c14.702-10.694,50.777,6.671,57.462,17.365
					C288.613,141.792,289.598,145.87,289.695,150.017z"/>
				
					<linearGradient id="SVGID_00000111902097517479929520000014917615103263710360_" gradientUnits="userSpaceOnUse" x1="267.2718" y1="172.8746" x2="252.6212" y2="140.9572">
					<stop  offset="0" style="stop-color:#FEB3A3"/>
					<stop  offset="1" style="stop-color:#B66073"/>
				</linearGradient>
				<path style="opacity:0.57;fill:url(#SVGID_00000111902097517479929520000014917615103263710360_);" d="M289.695,150.017
					c0.18,6.741-1.983,13.676-3.634,21.11c-0.111,0.485-0.208,0.957-0.291,1.415c-8.599-0.152-24.05-5.09-30.194-6.893
					c-7.115-2.094-30.596-13.204-30.596-13.204s5.895-7.795,13.703-12.621c7.809-4.827,30.527-0.263,30.527-0.263
					S282.025,145.329,289.695,150.017z"/>
				
					<linearGradient id="SVGID_00000181778666337164250210000010244141482770763655_" gradientUnits="userSpaceOnUse" x1="210.3532" y1="185.6069" x2="200.5127" y2="150.9062">
					<stop  offset="0.016" style="stop-color:#EEC0A8"/>
					<stop  offset="1" style="stop-color:#E59393"/>
				</linearGradient>
				<path style="fill:url(#SVGID_00000181778666337164250210000010244141482770763655_);" d="M211.211,176.041
					c0.013,1.913-0.053,3.572-0.227,4.669c0,0-1.204-0.214-2.85-0.803c-0.428-0.147-0.896-0.321-1.378-0.535
					c-3.425-1.485-7.693-4.429-7.64-9.901c0.04-6.181,3.331-8.978,6.73-9.393c0.535-0.054,1.097-0.067,1.632-0.013
					c0.615,0.067,1.217,0.201,1.793,0.415h0.013c0.401,0.147,0.789,0.321,1.137,0.522c0.013,0,0.027,0.013,0.04,0.054
					c0.013,0.187,0.147,1.739,0.308,3.934v0.013C210.97,168.107,211.211,172.495,211.211,176.041z"/>
				
					<linearGradient id="SVGID_00000183951066255525727480000018336911828060433056_" gradientUnits="userSpaceOnUse" x1="217.7522" y1="145.4272" x2="213.2781" y2="170.6611">
					<stop  offset="0" style="stop-color:#421F5A"/>
					<stop  offset="1" style="stop-color:#342D7A"/>
				</linearGradient>
				<path style="fill:url(#SVGID_00000183951066255525727480000018336911828060433056_);" d="M227.701,148.442l-3.955,7.63
					c0,0-5.037,5.959-6.213,10.222c-1.162,4.262-5.291,12.279-5.291,12.279c-0.414-0.721-0.735-1.59-0.989-2.539
					c-1.149-4.49-0.575-10.676-0.535-11.024v-0.013c-0.187-2.338-0.334-3.955-0.334-3.955c-1.35-0.788-3.006-1.122-4.623-0.909
					l-0.067-0.067l0.735-9.901L227.701,148.442z"/>
				<g>
					<path style="fill:#E3837F;" d="M259.415,182.376c-0.108-0.204-0.207-0.414-0.29-0.63c-0.168-0.435-0.294-0.885-0.402-1.338
						c-0.106-0.444-0.197-0.891-0.299-1.335c-0.058-0.249-0.119-0.498-0.187-0.745c-0.073-0.266-0.128-0.54-0.321-0.746
						c-0.185-0.199-0.571-0.11-0.628,0.166c-0.057,0.279,0.033,0.544,0.086,0.818c0.049,0.253,0.091,0.506,0.129,0.761
						c0.073,0.482,0.132,0.966,0.211,1.447c0.076,0.461,0.171,0.92,0.31,1.367c0.082,0.264,0.181,0.52,0.29,0.774
						c0.122,0.285,0.232,0.575,0.483,0.771c0.461,0.359,1.056,0.032,0.96-0.559C259.709,182.845,259.546,182.623,259.415,182.376z"
						/>
					<path style="fill:#55379F;" d="M274.01,169.798c-0.264-1-1.232-1.739-2.092-2.225c-0.928-0.524-1.974-0.891-3.023-1.076
						c-1.127-0.199-2.235-0.147-3.274,0.368c-0.461,0.228-0.904,0.54-1.288,0.882c-0.41,0.365-0.913,0.845-1.165,1.336
						c-0.076,0.149,0.05,0.341,0.224,0.291c0.876-0.251,1.596-1.031,2.397-1.453c0.869-0.458,1.848-0.5,2.798-0.31
						c1.714,0.341,3.416,1.099,4.315,2.654C273.248,170.861,274.186,170.464,274.01,169.798z"/>
					<path style="fill:#55379F;" d="M273.629,159.153c-0.475-0.615-1.261-0.958-1.976-1.218c-0.811-0.294-1.682-0.425-2.542-0.453
						c-1.57-0.05-3.286,0.406-4.415,1.548c-0.073,0.074,0.023,0.209,0.114,0.148c1.244-0.843,2.854-0.889,4.301-0.758
						c0.736,0.066,1.467,0.243,2.162,0.49c0.653,0.232,1.209,0.61,1.787,0.98C273.548,160.203,273.93,159.542,273.629,159.153z"/>
					<path style="fill:#55379F;" d="M250.138,167.487c-0.454-0.335-0.917-0.659-1.409-0.936c-0.984-0.554-2.055-0.859-3.185-0.897
						c-1.871-0.063-4.527,0.49-5.561,2.228c-0.111,0.187,0.121,0.452,0.314,0.314c1.48-1.061,3.52-1.61,5.334-1.459
						c0.966,0.08,1.884,0.424,2.715,0.912c0.422,0.248,0.824,0.527,1.219,0.816c0.394,0.288,0.822,0.761,1.349,0.695
						c0.269-0.034,0.414-0.218,0.372-0.489C251.202,168.119,250.552,167.792,250.138,167.487z"/>
					<path style="fill:#55379F;" d="M250.345,158.077c-0.607-0.447-1.429-0.715-2.132-0.985c-0.716-0.275-1.457-0.5-2.224-0.571
						c-0.715-0.066-1.458,0.007-2.133,0.26c-0.793,0.296-1.353,0.773-1.852,1.451c-0.082,0.112,0.076,0.254,0.186,0.186
						c1.232-0.772,2.512-1.268,3.974-0.999c0.643,0.118,1.263,0.321,1.869,0.564c0.66,0.265,1.306,0.678,1.998,0.841
						C250.501,158.932,250.708,158.344,250.345,158.077z"/>
				</g>
			</g>
			<g>
				
					<linearGradient id="SVGID_00000003092220926707124770000011596786927180230307_" gradientUnits="userSpaceOnUse" x1="205.9356" y1="134.9945" x2="291.2232" y2="134.9945">
					<stop  offset="0" style="stop-color:#B3A9F0"/>
					<stop  offset="1" style="stop-color:#DBCFF2"/>
				</linearGradient>
				<path style="fill:url(#SVGID_00000003092220926707124770000011596786927180230307_);" d="M291.179,147.104
					c-0.513,4.882-1.928,9.39-1.928,9.39s-19.792-12.441-26.685-12.094c-6.893,0.347-25.687,6.547-25.687,6.547l-7.934,1.817
					c-1.248-0.069-2.594-0.18-3.967-0.319c0,0-0.014,0-0.028,0c-8.696-0.832-19.015-2.621-19.015-2.621s2.483-11.803,6.63-18.35
					c1.928-3.051,6.38-7.614,12.566-11.373c0.014,0,0.014,0,0.014,0c7.115-4.341,16.519-7.628,26.949-6.311
					c12.913,1.623,26.186,9.57,30.777,14.785C287.462,133.789,291.706,142.222,291.179,147.104z"/>
				
					<linearGradient id="SVGID_00000176739660094376643490000014543380139490571393_" gradientUnits="userSpaceOnUse" x1="260.6937" y1="152.2774" x2="317.8503" y2="152.2774">
					<stop  offset="0" style="stop-color:#4B2366"/>
					<stop  offset="1" style="stop-color:#393286"/>
				</linearGradient>
				<path style="fill:url(#SVGID_00000176739660094376643490000014543380139490571393_);" d="M317.85,161.042l-57.157-8.639
					c4.682-2.814,13.074-6.739,25.568-8.565c16.57-2.419,26.881,9.33,30.314,14.082c0,0.012,0.013,0.025,0.025,0.037
					C317.472,159.795,317.85,161.042,317.85,161.042z"/>
				
					<linearGradient id="SVGID_00000003785786244581225720000012214410403662999718_" gradientUnits="userSpaceOnUse" x1="228.9414" y1="148.1364" x2="317.8503" y2="148.1364">
					<stop  offset="0" style="stop-color:#77449B"/>
					<stop  offset="1" style="stop-color:#6057BB"/>
				</linearGradient>
				<path style="fill:url(#SVGID_00000003785786244581225720000012214410403662999718_);" d="M317.85,161.042
					c0,0-1.275-3.11-1.275-3.122c-3.433-4.752-13.743-16.501-30.314-14.082c-12.494,1.827-20.886,5.751-25.568,8.565
					c-3.079,1.839-4.556,3.221-4.556,3.221l-27.196-2.863c0,0,16.608-15.452,31.752-17.205c15.144-1.753,40.712,3.826,48.524,10.984
					C317.03,153.711,317.85,161.042,317.85,161.042z"/>
				
					<linearGradient id="SVGID_00000066509963812660598250000002763282210265246605_" gradientUnits="userSpaceOnUse" x1="242.5432" y1="119.2275" x2="219.7634" y2="140.5109">
					<stop  offset="0" style="stop-color:#B3A9F0"/>
					<stop  offset="1" style="stop-color:#DBCFF2;stop-opacity:0"/>
				</linearGradient>
				<path style="opacity:0.56;fill:url(#SVGID_00000066509963812660598250000002763282210265246605_);" d="M224.979,152.444
					c0,0-0.014,0-0.028,0c-8.696-0.832-19.015-2.621-19.015-2.621s2.483-11.803,6.63-18.35c1.928-3.051,6.38-7.614,12.566-11.373
					c0.014,0,0.014,0,0.014,0c6.325-0.943,13.773-1.331,14.813,1.789C241.789,127.437,224.979,152.444,224.979,152.444z"/>
			</g>
			<g>
				<path style="fill:#FFFFFF;" d="M284.715,199.185c-1.331,9.348-28.058,30.735-37.406,28.058
					c-3.759-1.068-9.639-4.494-15.52-8.655c-0.028-0.014-0.042-0.014-0.042-0.014c-8.807-6.214-17.587-14.05-19.182-18.058
					c0,0,4.494-2.469,6.006-4.563c5.381-7.489,3.481-13.44,3.481-13.44s27.323-3.121,35.59-1.817
					c8.294,1.29,27.351,7.725,27.351,7.725c0.028,0.874,0.069,1.762,0.083,2.635C285.159,193.679,285.132,196.314,284.715,199.185z"
					/>
				<g>
					<path style="fill:#FFFFFF;" d="M212.562,200.525c0,0,0,0,0-0.013c-0.147-0.335-4.683-10.757-5.807-21.14
						c0.482,0.214,0.95,0.388,1.378,0.535c1.07,9.165,4.348,16.591,5.78,19.802c0.08,0.187,0.161,0.348,0.227,0.508L212.562,200.525
						z"/>
				</g>
				<path style="fill:#FFFFFF;" d="M223.681,182.864l-1.418,0.763c-2.689-7.345-8.349-19.842-11.801-22.571
					c-0.013-0.04-0.027-0.054-0.04-0.054c-0.375-0.308-0.749-0.482-1.07-0.522h-0.08c-0.575-0.214-1.177-0.348-1.793-0.415
					c0.682-0.816,1.432-0.95,1.993-0.91c4.803,0.415,12.43,19.387,13.995,23.2C223.56,182.583,223.627,182.757,223.681,182.864z"/>
				
					<linearGradient id="SVGID_00000133503325705166163950000015802856887314864812_" gradientUnits="userSpaceOnUse" x1="277.069" y1="182.9013" x2="243.2451" y2="217.6199" gradientTransform="matrix(1 -0.0031 0.0031 1 -0.5269 0.7106)">
					<stop  offset="0" style="stop-color:#B3A9F0"/>
					<stop  offset="1" style="stop-color:#DBCFF2;stop-opacity:0"/>
				</linearGradient>
				<path style="opacity:0.41;fill:url(#SVGID_00000133503325705166163950000015802856887314864812_);" d="M284.695,199.104
					c-1.303,9.352-27.964,30.821-37.32,28.174c-3.762-1.056-9.653-4.464-15.547-8.607c0.694,0.123,10.311,1.896,16,2.655
					c5.911,0.786,18.655-9.045,21.381-15.628c2.712-6.583,3.105-14.171-0.049-15.881c-2.667-1.434-14.037-4.797-20.558-5.429
					c4.979,0.082,14.8,0.412,19.617,1.576c5.052,1.219,13.23,3.829,16.812,5.011C285.122,193.597,285.102,196.232,284.695,199.104z"
					/>
			</g>
		</g>
		<g>
			
				<linearGradient id="SVGID_00000086655682791088627830000018302568788738941570_" gradientUnits="userSpaceOnUse" x1="303.4856" y1="323.7296" x2="287.3788" y2="242.1219">
				<stop  offset="0" style="stop-color:#77449B"/>
				<stop  offset="1" style="stop-color:#6057BB"/>
			</linearGradient>
			<path style="fill:url(#SVGID_00000086655682791088627830000018302568788738941570_);" d="M317.85,298.076l-3.523,0.347
				l-6.449,0.638l-10.416,1.026l-17.725,1.748v-61.97c0,0,3.786,2.136,8.502,5.909c0,0,0.028,0.014,0.028,0.028
				c0.888,0.694,1.817,1.456,2.746,2.275c0,0.014,0.014,0.014,0.014,0.014c1.22,1.068,2.469,2.233,3.689,3.467
				c2.011,2.053,3.967,4.314,5.687,6.782C308.28,269.615,317.85,298.076,317.85,298.076z"/>
			
				<linearGradient id="SVGID_00000179620960080226969930000017469359449022100391_" gradientUnits="userSpaceOnUse" x1="312.072" y1="291.0049" x2="298.3812" y2="252.6171">
				<stop  offset="0" style="stop-color:#77449B;stop-opacity:0"/>
				<stop  offset="1" style="stop-color:#6057BB"/>
			</linearGradient>
			<path style="opacity:0.58;fill:url(#SVGID_00000179620960080226969930000017469359449022100391_);" d="M317.85,298.076
				l-3.523,0.347c-1.914-7.129-9.861-35.298-19.612-46.866c2.011,2.053,3.967,4.314,5.687,6.782
				C308.28,269.615,317.85,298.076,317.85,298.076z"/>
			
				<linearGradient id="SVGID_00000068650226481009308430000006160447863455523006_" gradientUnits="userSpaceOnUse" x1="300.4308" y1="296.7157" x2="292.3774" y2="252.1537">
				<stop  offset="0" style="stop-color:#92A1E1;stop-opacity:0"/>
				<stop  offset="1" style="stop-color:#6E5CB6"/>
			</linearGradient>
			<path style="opacity:0.72;fill:url(#SVGID_00000068650226481009308430000006160447863455523006_);" d="M307.878,299.061
				l-10.416,1.026c-0.416-12.219-1.429-22.843-2.968-29.126c-2.538-10.374-7.101-19.168-10.458-24.73
				C284.813,246.758,303.134,259.449,307.878,299.061z"/>
		</g>
		<g>
			
				<linearGradient id="SVGID_00000018936237768652672910000011290149838039168190_" gradientUnits="userSpaceOnUse" x1="237.1551" y1="444.8455" x2="225.3437" y2="241.3637">
				<stop  offset="0" style="stop-color:#77449B"/>
				<stop  offset="1" style="stop-color:#6057BB"/>
			</linearGradient>
			<path style="fill:url(#SVGID_00000018936237768652672910000011290149838039168190_);" d="M297.268,330.781
				c-0.652,13.731-2.039,26.838-4.286,36.103c-4.91,20.236-9.126,67.975-10.569,85.632c-21.193-4.563-41.346-10.735-59.765-18.266
				c-21.567-8.78-40.749-19.431-56.45-31.512c-0.222-21.914-1.747-52.33-3.869-65.562c-0.527-3.273-0.777-8.544-0.791-14.979
				c-0.069-28.738,4.48-80.874,9.736-83.801c6.449-3.592,32.941-8.96,32.941-8.96s15.992,17.462,40.083,17.906
				c14.896,0.263,18.974-13.246,18.974-13.246l16.463,5.77c0,0,1.831,2.33,4.272,6.352c0,0,0.014,0,0.028,0.014
				c3.356,5.562,7.919,14.355,10.458,24.73C297.24,282.223,298.336,307.41,297.268,330.781z"/>
			
				<linearGradient id="SVGID_00000160879928202863376660000013867141279163332744_" gradientUnits="userSpaceOnUse" x1="213.061" y1="450.8417" x2="209.8397" y2="321.2719">
				<stop  offset="0" style="stop-color:#92A1E1;stop-opacity:0"/>
				<stop  offset="1" style="stop-color:#6E5CB6"/>
			</linearGradient>
			<path style="opacity:0.72;fill:url(#SVGID_00000160879928202863376660000013867141279163332744_);" d="M260.763,423.43
				c0,0-9.348,5.021-17.92,7.517c-2.746,0.805-10.694,2.025-20.194,3.301c-21.567-8.78-40.749-19.431-56.45-31.512
				c-0.222-21.914-1.747-52.33-3.869-65.562c-0.527-3.273-0.777-8.544-0.791-14.979l1.872-15.798l26.588-56.325
				c0,0,7.323,16.588,5.173,34.841c0,0-4.355,34.605-5.173,45.936c-0.818,11.331,0,68.253,0,68.253L260.763,423.43z"/>
			
				<linearGradient id="SVGID_00000049935299366725966920000015158654135480535697_" gradientUnits="userSpaceOnUse" x1="213.3444" y1="223.7925" x2="237.3256" y2="258.5115">
				<stop  offset="0" style="stop-color:#B3A9F0"/>
				<stop  offset="1" style="stop-color:#DBCFF2"/>
			</linearGradient>
			<path style="fill:url(#SVGID_00000049935299366725966920000015158654135480535697_);" d="M212.33,225.302
				c0,0,8.344,15.592,31.967,22.035l-6.801,16.465c0,0-26.487-14.675-33.287-34.361L212.33,225.302z"/>
			
				<linearGradient id="SVGID_00000044160755492427614550000000209407942416756914_" gradientUnits="userSpaceOnUse" x1="253.782" y1="260.9378" x2="253.782" y2="231.4875">
				<stop  offset="0" style="stop-color:#B3A9F0"/>
				<stop  offset="1" style="stop-color:#DBCFF2"/>
			</linearGradient>
			<path style="fill:url(#SVGID_00000044160755492427614550000000209407942416756914_);" d="M244.297,247.337
				c0,0,11.261-3.208,14.688-15.849l4.283,2.606c0,0-0.716,12.527-6.443,26.845L244.297,247.337z"/>
		</g>
		<g>
			
				<linearGradient id="SVGID_00000029744935356190426540000000054132291157323182_" gradientUnits="userSpaceOnUse" x1="360.1111" y1="413.3372" x2="327.3607" y2="283.4093">
				<stop  offset="0" style="stop-color:#518334"/>
				<stop  offset="1" style="stop-color:#BFCE4E"/>
			</linearGradient>
			<polygon style="fill:url(#SVGID_00000029744935356190426540000000054132291157323182_);" points="394.312,412.422 
				274.344,399.842 289.244,267.469 409.109,280.961 			"/>
			
				<linearGradient id="SVGID_00000128463919168245920750000006075103226203596719_" gradientUnits="userSpaceOnUse" x1="420.7296" y1="413.5976" x2="422.3405" y2="263.8047">
				<stop  offset="0" style="stop-color:#275923"/>
				<stop  offset="1" style="stop-color:#9AA450"/>
			</linearGradient>
			<polygon style="fill:url(#SVGID_00000128463919168245920750000006075103226203596719_);" points="409.109,280.961 
				448.617,278.159 433.82,409.62 394.312,412.422 			"/>
			
				<linearGradient id="SVGID_00000168810594981063508380000003725132291974463929_" gradientUnits="userSpaceOnUse" x1="486.7613" y1="355.7766" x2="381.5306" y2="281.6855">
				<stop  offset="0" style="stop-color:#6BA543"/>
				<stop  offset="1" style="stop-color:#C5D359"/>
			</linearGradient>
			<polygon style="fill:url(#SVGID_00000168810594981063508380000003725132291974463929_);" points="289.244,267.469 
				330.208,264.831 448.617,278.159 409.109,280.961 			"/>
		</g>
		<g>
			
				<linearGradient id="SVGID_00000099628404514389995260000007343321401159064969_" gradientUnits="userSpaceOnUse" x1="260.2634" y1="409.6199" x2="269.8252" y2="409.6199">
				<stop  offset="0" style="stop-color:#4B2366"/>
				<stop  offset="1" style="stop-color:#393286"/>
			</linearGradient>
			<path style="fill:url(#SVGID_00000099628404514389995260000007343321401159064969_);" d="M269.251,414.567
				c-0.167,0.929-0.361,1.859-0.61,2.788c-2.871,10.735-7.878,6.075-7.878,6.075c-0.791-4.341-0.569-8.461,0.152-12.15
				c1.914-9.709,7.365-16.477,7.365-16.477S270.971,404.665,269.251,414.567z"/>
			
				<linearGradient id="SVGID_00000058590580063166233700000000999689816950206864_" gradientUnits="userSpaceOnUse" x1="206.4171" y1="413.8555" x2="165.6134" y2="251.3564">
				<stop  offset="0" style="stop-color:#77449B"/>
				<stop  offset="1" style="stop-color:#6057BB"/>
			</linearGradient>
			<path style="fill:url(#SVGID_00000058590580063166233700000000999689816950206864_);" d="M260.346,415.608
				c-0.18,2.483-0.083,5.118,0.416,7.823c0,0-89.127-20.042-107.379-27.559c-18.253-7.517-24.702-19.681-25.77-32.927
				c-1.068-13.246,15.395-91.263,24.341-105.59c8.946-14.314,16.824-18.96,19.32-18.96c0,0,15.756-2.51,19.695,15.021
				c3.939,17.545-17.518,96.644-21.484,110.611c0,0,0.014,0,0.028,0.014c0.014-0.014,0.014-0.014,0.028,0v0.014
				c1.456,0.375,35.118,9.404,54.716,14.993c20.042,5.728,44.022,15.756,44.022,15.756s-5.451,6.768-7.365,16.477
				C260.652,412.667,260.444,414.11,260.346,415.608z"/>
			
				<linearGradient id="SVGID_00000142883591565421902500000008774840834099963284_" gradientUnits="userSpaceOnUse" x1="169.5415" y1="389.8308" x2="268.28" y2="389.8308">
				<stop  offset="0" style="stop-color:#77449B;stop-opacity:0"/>
				<stop  offset="1" style="stop-color:#6057BB"/>
			</linearGradient>
			<path style="opacity:0.58;fill:url(#SVGID_00000142883591565421902500000008774840834099963284_);" d="M268.28,394.803
				c0,0-5.451,6.768-7.365,16.477c-0.263,1.387-0.471,2.829-0.569,4.327c0,0-0.832-10.43,2.926-19.015
				c0,0-59.237-20.222-66.408-22.552c-6.935-2.261-26.131-9.542-27.323-9.986c1.456,0.375,35.118,9.404,54.716,14.993
				C244.299,384.775,268.28,394.803,268.28,394.803z"/>
			<g>
				
					<linearGradient id="SVGID_00000113343676431524646010000015887278498523311286_" gradientUnits="userSpaceOnUse" x1="260.9151" y1="402.5591" x2="330.2082" y2="402.5591">
					<stop  offset="0.016" style="stop-color:#EEC0A8"/>
					<stop  offset="1" style="stop-color:#E59393"/>
				</linearGradient>
				<path style="fill:url(#SVGID_00000113343676431524646010000015887278498523311286_);" d="M330.208,405.7
					c0,0-9.14,7.272-14.23,8.34c-5.104,1.068-16.38,8.585-25.506,6.449c-6.658-1.567-15.798-4.119-21.221-5.922
					c-2.025-0.666-3.537-1.221-4.202-1.595c-0.957-0.527-2.552-1.137-4.133-1.692c0.416-2.094,0.985-4.05,1.637-5.825
					c2.372-6.491,5.728-10.652,5.728-10.652s7.698-0.18,11.637-3.037c3.925-2.871,15.562-1.969,19.861-7.517
					c0,0,2.94,0.652,3.786,3.481c0.263,0.791,0.347,1.775,0.153,2.954c-0.902,5.368-5.187,6.449-9.126,6.977
					c-3.939,0.541-6.81,3.578-6.81,3.578L330.208,405.7z"/>
				
					<linearGradient id="SVGID_00000005949902591698165060000008640639699040687254_" gradientUnits="userSpaceOnUse" x1="299.1807" y1="385.6083" x2="293.791" y2="419.6853">
					<stop  offset="0" style="stop-color:#FEB3A3"/>
					<stop  offset="1" style="stop-color:#B66073"/>
				</linearGradient>
				<path style="fill:url(#SVGID_00000005949902591698165060000008640639699040687254_);" d="M330.208,405.7
					c0,0-9.14,7.272-14.23,8.34c-5.104,1.068-16.38,8.585-25.506,6.449c-6.658-1.567-15.798-4.119-21.221-5.922
					c-2.025-0.666-3.537-1.221-4.202-1.595c-0.957-0.527-2.552-1.137-4.133-1.692c0.416-2.094,0.985-4.05,1.637-5.825
					c8.655,2.219,23.551,6.435,30.472,9.39c9.958,4.258,17.448-2.954,21.068-4.022c3.62-1.082,6.852-4.3,6.852-4.3l-33.162-5.284
					L330.208,405.7z"/>
				
					<linearGradient id="SVGID_00000066511595556586409300000006285020212832378303_" gradientUnits="userSpaceOnUse" x1="307.8793" y1="384.1363" x2="288.4618" y2="400.243">
					<stop  offset="0" style="stop-color:#FEB3A3"/>
					<stop  offset="1" style="stop-color:#B66073"/>
				</linearGradient>
				<path style="fill:url(#SVGID_00000066511595556586409300000006285020212832378303_);" d="M303.717,390.684
					c-0.902,5.368-5.187,6.449-9.126,6.977c-3.939,0.541-6.81,3.578-6.81,3.578s-5.895,1.026-6.172,0
					c-0.264-1.026,3.093-4.244,6.449-4.383c3.356-0.125,9.251-1.872,11.276-3.759c1.359-1.262,3.079-3.883,4.23-5.368
					C303.828,388.52,303.911,389.505,303.717,390.684z"/>
			</g>
		</g>
		<g>
			<g>
				<g>
					
						<linearGradient id="SVGID_00000021106919265188887800000001684378828972629657_" gradientUnits="userSpaceOnUse" x1="471.7342" y1="208.9928" x2="517.0978" y2="201.2085">
						<stop  offset="0.016" style="stop-color:#EEC0A8"/>
						<stop  offset="1" style="stop-color:#E59393"/>
					</linearGradient>
					<path style="fill:url(#SVGID_00000021106919265188887800000001684378828972629657_);" d="M552.833,224.06
						c-0.722,2.449-2.127,4.696-4,6.757c-9.767,10.918-31.964,16.604-31.964,16.604s-8.483,4.174-14.611,5.887
						c-2.248,0.616-4.174,0.91-5.258,0.549c-0.936-0.308-2.341-1.806-3.96-4.027c-2.087-2.903-4.522-7.064-6.703-11.466
						c-0.495-0.977-0.963-1.967-1.405-2.97c-2.261-4.937-4.014-9.888-4.455-13.46c-0.08-0.575-0.12-1.124-0.12-1.632
						c0-9.125,4.562-16.096,4.562-24.953c0-8.871-1.338-32.312,19.601-40.594s39.992-0.482,47.779,17.233
						C560.099,189.701,557.396,208.767,552.833,224.06z"/>
					
						<linearGradient id="SVGID_00000002372681688257719490000009603397591730625711_" gradientUnits="userSpaceOnUse" x1="486.1492" y1="238.9003" x2="489.5048" y2="219.1696">
						<stop  offset="0" style="stop-color:#FEB3A3"/>
						<stop  offset="1" style="stop-color:#B66073"/>
					</linearGradient>
					<path style="fill:url(#SVGID_00000002372681688257719490000009603397591730625711_);" d="M490.001,215.837
						c-0.28,1.51-0.58,3.018-0.929,4.518c-0.371,1.597-1.33,2.515-2.47,2.905c-0.407,4.055-0.949,8.229-1.67,12.137
						c0.444,0.999,0.915,1.983,1.401,2.968c2.318-5.603,4.71-13.224,5.84-22.508C491.479,216.037,490.729,216.015,490.001,215.837z"
						/>
					
						<linearGradient id="SVGID_00000054967830762853866160000008561315447873958545_" gradientUnits="userSpaceOnUse" x1="499.4316" y1="223.063" x2="498.3578" y2="210.4461">
						<stop  offset="0" style="stop-color:#FEB3A3"/>
						<stop  offset="1" style="stop-color:#B66073"/>
					</linearGradient>
					<path style="fill:url(#SVGID_00000054967830762853866160000008561315447873958545_);" d="M493.829,219.217
						c0,0,2.191,2.127,4.428,2.216c2.237,0.09,5.816-5.816,5.816-5.816l-3.132-6.98l-5.625-0.949L493.829,219.217z"/>
					
						<linearGradient id="SVGID_00000009584209549868888400000013914353582756289435_" gradientUnits="userSpaceOnUse" x1="503.8271" y1="253.5172" x2="529.24" y2="232.31">
						<stop  offset="0" style="stop-color:#FEB3A3"/>
						<stop  offset="1" style="stop-color:#B66073"/>
					</linearGradient>
					<path style="fill:url(#SVGID_00000009584209549868888400000013914353582756289435_);" d="M548.83,230.82
						c-9.764,10.916-31.956,16.602-31.956,16.602s-8.488,4.175-14.619,5.881c-2.302-0.333-4.521-0.777-5.007-1.456
						c-1.054-1.47,0.957-7.906,5.534-12.608c4.563-4.702,15.562-8.46,21.872-10.069c6.311-1.609,18.253-0.402,18.253-0.402
						S547.193,228.448,548.83,230.82z"/>
				</g>
				<g>
					
						<linearGradient id="SVGID_00000021828365800362308130000000546178549198209455_" gradientUnits="userSpaceOnUse" x1="515.3727" y1="277.1684" x2="538.0156" y2="240.5085">
						<stop  offset="0.016" style="stop-color:#EEC0A8"/>
						<stop  offset="1" style="stop-color:#E59393"/>
					</linearGradient>
					<path style="fill:url(#SVGID_00000021828365800362308130000000546178549198209455_);" d="M549.356,225.357
						c-0.818,3.079-1.373,7.517-1.775,12.191c-0.916,10.819-0.916,22.982-0.916,22.982l-4.272,0.61l-27.947,3.953l-5.701,1.026
						c3.495-6.99,5.173-20.624,5.173-20.624s7.074-5.631,14.91-11.221c0,0,0,0,0-0.014
						C539.19,226.883,550.882,219.559,549.356,225.357z"/>
					
						<linearGradient id="SVGID_00000086663377360806067320000016901430005151864221_" gradientUnits="userSpaceOnUse" x1="536.8333" y1="261.467" x2="537.7721" y2="233.9725">
						<stop  offset="0" style="stop-color:#FEB3A3"/>
						<stop  offset="1" style="stop-color:#B66073"/>
					</linearGradient>
					<path style="fill:url(#SVGID_00000086663377360806067320000016901430005151864221_);" d="M547.581,237.548
						c-0.916,10.819-0.916,22.982-0.916,22.982l-4.272,0.61c-0.111-0.083-0.222-0.152-0.319-0.236
						c-5.104-3.87-14.383-22.538-14.383-22.538l7.656-4.993L547.581,237.548z"/>
					
						<linearGradient id="SVGID_00000093855880811991382730000018107785014774130351_" gradientUnits="userSpaceOnUse" x1="511.4094" y1="261.9192" x2="526.3529" y2="228.5425">
						<stop  offset="0" style="stop-color:#FEB3A3"/>
						<stop  offset="1" style="stop-color:#B66073"/>
					</linearGradient>
					<path style="fill:url(#SVGID_00000093855880811991382730000018107785014774130351_);" d="M528.83,234.051
						c0,0-3.634,7.739-5.381,11.637c-1.401,3.135-6.907,14.619-9.001,19.182l-5.696,1.246c3.495-6.99,5.169-20.844,5.169-20.844
						S520.993,239.641,528.83,234.051z"/>
				</g>
				<g>
					<path style="fill:#FFFFFF;" d="M493.04,249.829c-2.087-2.903-4.522-7.064-6.703-11.466c-0.495-0.977-0.963-1.967-1.405-2.97
						c-2.261-4.937-4.014-9.888-4.455-13.46l3.786-0.789c0,0,0.549,3.024,1.94,5.66c0.749,1.418,1.739,2.716,3.01,3.398
						c0.201,0.107,0.401,0.201,0.616,0.268C489.829,230.469,493.214,244.906,493.04,249.829z"/>
					<g>
						<path style="fill:#FFFFFF;" d="M497.107,212.795c0.04,2.77-0.482,5.446-1.271,7.867c-1.994,6.248-5.686,10.851-5.9,11.159
							l-0.923-1.244c0.054-0.08,3.532-5.325,5.579-10.717c0.027-0.067,0.053-0.134,0.08-0.201c1.298,0.134,2.074-2.77,2.395-6.382
							L497.107,212.795z"/>
					</g>
					
						<linearGradient id="SVGID_00000119098212012091439610000017907893803927405211_" gradientUnits="userSpaceOnUse" x1="487.2499" y1="229.9747" x2="484.5308" y2="237.8082">
						<stop  offset="0" style="stop-color:#B3A9F0"/>
						<stop  offset="1" style="stop-color:#DBCFF2;stop-opacity:0"/>
					</linearGradient>
					<path style="opacity:0.41;fill:url(#SVGID_00000119098212012091439610000017907893803927405211_);" d="M489.213,230.202
						c-0.896,3.064-1.887,5.793-2.877,8.161c-0.495-0.977-0.963-1.967-1.405-2.97c0.508-2.77,0.937-5.686,1.271-8.59
						C486.952,228.221,487.942,229.519,489.213,230.202z"/>
					<g>
						<path style="fill:#FFFFFF;" d="M493.883,202.626c-0.134,0.656-0.241,1.418-0.321,2.248
							c-4.456,5.178-9.004,17.113-9.058,17.246l-1.258-0.482C483.487,221.036,488.825,207.015,493.883,202.626z"/>
					</g>
				</g>
				
					<linearGradient id="SVGID_00000111182797727483031610000008383879902513090455_" gradientUnits="userSpaceOnUse" x1="494.2694" y1="209.4447" x2="505.9657" y2="216.7387">
					<stop  offset="0.016" style="stop-color:#EEC0A8"/>
					<stop  offset="1" style="stop-color:#E59393"/>
				</linearGradient>
				<path style="fill:url(#SVGID_00000111182797727483031610000008383879902513090455_);" d="M497.067,213.276
					c-0.321,3.612-1.097,6.516-2.395,6.382c-0.254-0.013-0.535-0.161-0.843-0.441c0,0-0.776-8.683-0.268-14.343
					c0.08-0.829,0.187-1.592,0.321-2.248c0.281-1.338,0.682-2.248,1.284-2.475C496.88,199.535,497.602,207.349,497.067,213.276z"/>
			</g>
			<g>
				
					<linearGradient id="SVGID_00000121957787233807864620000006462147735026219918_" gradientUnits="userSpaceOnUse" x1="545.5277" y1="314.428" x2="481.8395" y2="399.9523">
					<stop  offset="0" style="stop-color:#98208A"/>
					<stop  offset="1" style="stop-color:#D9187B"/>
				</linearGradient>
				<path style="fill:url(#SVGID_00000121957787233807864620000006462147735026219918_);" d="M562.664,387.397
					c0,0.014-0.014,0.042-0.014,0.069c-0.263,1.332-0.499,12.441-0.721,13.523c-1.137,0.957-2.275,1.928-3.426,2.871
					c-0.042,0.042-0.083,0.069-0.111,0.083c-3.495,2.566-7.06,5.076-10.694,7.503c-11.789,7.892-24.216,15.007-36.949,20.999
					c-7.198,3.384-14.563,6.449-22.081,9.196c-4.286,1.581-8.627,3.051-13.01,4.438c0.43-6.588,0.86-15.756,1.248-19.501
					c0.277-2.677,0.527-5.354,0.763-7.975c0.208-2.621,0.402-5.187,0.541-7.614c0.014-0.236,0.028-0.486,0.041-0.721
					c0.028-0.721,0.069-1.429,0.097-2.122c0.152-3.884,0.166-7.309-0.042-9.986c-0.069-0.791-0.153-1.526-0.25-2.177
					c-0.125-0.819-0.291-1.512-0.499-2.067c-0.083-0.236-0.18-0.472-0.277-0.707c-0.042-0.111-0.083-0.208-0.125-0.319
					c-0.208-0.541-0.444-1.054-0.68-1.553c-0.194-0.43-0.402-0.86-0.61-1.262c-0.361-0.707-0.735-1.373-1.124-2.039
					c-0.277-0.485-0.555-0.957-0.832-1.443c-0.152-0.25-0.305-0.499-0.458-0.763c-0.153-0.25-0.305-0.499-0.444-0.763
					c-1.068-1.803-2.136-3.675-3.093-5.825c-0.264-0.569-0.499-1.165-0.735-1.789c-0.125-0.333-0.25-0.666-0.361-0.999
					c-0.083-0.208-0.139-0.416-0.208-0.624c-0.042-0.139-0.097-0.277-0.125-0.43c-0.055-0.153-0.097-0.305-0.139-0.458
					c-0.028-0.097-0.042-0.18-0.069-0.277c-0.056-0.167-0.097-0.333-0.139-0.513c-0.055-0.208-0.111-0.416-0.166-0.624
					c-0.028-0.125-0.069-0.25-0.097-0.375c-0.083-0.347-0.166-0.707-0.25-1.068c-0.18-0.86-0.333-1.775-0.458-2.732
					c-0.069-0.444-0.125-0.901-0.18-1.359c-0.111-0.971-0.194-1.983-0.222-3.065c-0.014-0.042-0.014-0.083-0.014-0.125
					c-0.028-0.485-0.055-0.985-0.055-1.512c0-0.139,0-0.277-0.014-0.416v-0.111c0-0.375-0.014-0.749-0.014-1.137v-1.04
					c0.069-5.049,1.359-12.58,3.467-21.207c0.68-2.871,1.47-5.881,2.33-8.946c0.68-2.455,1.415-4.952,2.191-7.476
					c0.763-2.524,1.567-5.062,2.399-7.587c0.416-1.262,0.846-2.524,1.276-3.786c0.43-1.262,0.86-2.51,1.304-3.759
					c4.522-12.76,9.612-24.633,14.147-32.108c1.248-2.08,2.469-3.814,3.62-5.146c0.042-0.014,0.097-0.042,0.139-0.056
					c1.484-0.61,14.66-5.978,25.257-9.612l0.097-0.042c2.552-0.874,4.965-1.651,7.018-2.233c1.429-0.416,2.927-0.707,4.466-0.901
					c6.907-0.86,14.868,0.361,23.176,2.885c2.746,3.19,21.678,25.59,23.995,37.906C584.065,311.807,566.52,373.999,562.664,387.397z
					"/>
				
					<linearGradient id="SVGID_00000035505106826326424930000007716019049667301298_" gradientUnits="userSpaceOnUse" x1="545.9689" y1="335.6299" x2="519.0338" y2="412.9965">
					<stop  offset="0" style="stop-color:#8E1E81"/>
					<stop  offset="1" style="stop-color:#CF1775;stop-opacity:0"/>
				</linearGradient>
				<path style="fill:url(#SVGID_00000035505106826326424930000007716019049667301298_);" d="M562.664,387.397
					c0,0.014-0.014,0.042-0.014,0.069c-0.263,1.332-0.499,12.441-0.721,13.523c-1.137,0.957-2.275,1.928-3.426,2.871
					c-0.042,0.042-0.083,0.069-0.111,0.083c-3.495,2.566-7.06,5.076-10.694,7.503c0.208-7.892,0.61-19.889,1.026-21.609
					c2.08-8.585,2.76-36.505,2.76-51.262c0-14.758,0-63.634,0-63.634c0-13.148-17.115-17.198-17.115-17.198l0.014-0.014
					c6.907-0.86,14.868,0.361,23.176,2.885c2.746,3.19,21.678,25.59,23.995,37.906C584.065,311.807,566.52,373.999,562.664,387.397z
					"/>
				
					<linearGradient id="SVGID_00000163064312045961142900000000275950908066146732_" gradientUnits="userSpaceOnUse" x1="489.6231" y1="324.8625" x2="476.7376" y2="397.8797">
					<stop  offset="0" style="stop-color:#8E1E81"/>
					<stop  offset="1" style="stop-color:#CF1775;stop-opacity:0"/>
				</linearGradient>
				<path style="fill:url(#SVGID_00000163064312045961142900000000275950908066146732_);" d="M509.828,308.49
					c0,0-13.093,46.186-15.506,54.771s-8.058,46.977-11.54,54.758c-1.068,2.372-3.287,5.437-5.867,8.558
					c1.442-13.925,2.316-28.058,0.652-32.663c-3.62-10-11.151-13.731-10.888-33.329c0.139-10.777,5.881-32.843,12.968-52.76
					l21.387-14.563L509.828,308.49z"/>
			</g>
			<g>
				<g>
					
						<linearGradient id="SVGID_00000158711878793379003150000007937192023201438609_" gradientUnits="userSpaceOnUse" x1="304.3477" y1="360.3054" x2="459.6336" y2="360.3054">
						<stop  offset="0.016" style="stop-color:#EEC0A8"/>
						<stop  offset="1" style="stop-color:#E59393"/>
					</linearGradient>
					<path style="fill:url(#SVGID_00000158711878793379003150000007937192023201438609_);" d="M444.682,336.285l-15.118,17.698
						v0.014l-5.465,6.394c0,0-43.426,3.204-73.607-2.51c0,0-0.014,0.028-0.055,0.069c-0.485-0.638-4.147-5.409-7.587-6.519
						c-3.703-1.193-10.694-11.262-12.15-12.857c0,0-3.329,3.828-2.552,7.212c0.777,3.384,4.743,4.591,4.771,5.825
						c0.014,1.248-16.81-8.28-20.222-8.572c-3.079-0.263-6.366,4.022-7.725,6.436c-0.139,0.25-0.264,0.486-0.361,0.693
						c-0.777,1.609,0.236,8.322,2.025,13.842c0.61,1.914,1.318,3.689,2.08,5.063c0.208,0.374,0.555,0.707,1.013,0.999
						c6.172,4.105,33.523,2.732,33.523,2.732l0.055-0.125c1.997,0.527,59.737,15.423,98.947,10.735l17.379-18.322L444.682,336.285z"
						/>
					
						<linearGradient id="SVGID_00000096042116416514021300000008105198701654936209_" gradientUnits="userSpaceOnUse" x1="336.5556" y1="322.6391" x2="436.9542" y2="398.0723">
						<stop  offset="0" style="stop-color:#FEB3A3"/>
						<stop  offset="1" style="stop-color:#B66073"/>
					</linearGradient>
					<path style="fill:url(#SVGID_00000096042116416514021300000008105198701654936209_);" d="M444.682,336.285l-15.118,17.698
						v0.014c0,0-1.29,10.957,1.401,20.541c0,0-32.746,4.299-49.39,1.609c-16.644-2.677-37.24-5.562-37.24-5.562
						s-0.208-0.028-0.61-0.083c-3.229-0.433-18.524-2.534-27.768-4.288c-0.006-0.021-0.95-3.497,1.221-4.825
						c2.191-1.345,10.236-1.082,10.236-1.082s-3.828-1.47-6.103-2.011c-2.288-0.541-5.506-2.011-6.99-2.497
						c-1.47-0.485-5.367-2.067-6.574-2.871c-0.804-0.541-2.053-2.33-2.774-3.453c-0.139,0.25-0.264,0.486-0.361,0.693
						c-0.777,1.609,0.236,8.322,2.025,13.842c0.61,1.914,1.318,3.689,2.08,5.063c0.099,0.177,0.234,0.345,0.395,0.507
						c0.039,0.039,0.089,0.074,0.131,0.112c5.011,4.561,34.01,3.112,34.01,3.112l0.055-0.125
						c1.997,0.527,59.737,15.423,98.947,10.735l17.379-18.322L444.682,336.285z"/>
				</g>
				<g>
					
						<linearGradient id="SVGID_00000148626970920856789830000003026620335903842182_" gradientUnits="userSpaceOnUse" x1="505.6522" y1="265.5401" x2="453.7527" y2="362.5385">
						<stop  offset="0" style="stop-color:#98208A"/>
						<stop  offset="1" style="stop-color:#D9187B"/>
					</linearGradient>
					<path style="fill:url(#SVGID_00000148626970920856789830000003026620335903842182_);" d="M508.191,314.579
						c-5.035,16.63-26.491,38.641-41.29,52.344c-8.322,7.712-14.549,12.788-14.549,12.788s-19.209-1.747-22.788-27.393
						c0,0,0.042-0.042,0.097-0.125c2.219-3.384,49.14-74.48,67.754-81.623c0.042-0.014,0.097-0.042,0.139-0.055
						c2.705-0.999,5.035-1.013,7.004-0.208c2.691,1.11,4.674,3.773,5.936,7.545c0.43,1.262,0.777,2.649,1.026,4.147
						c0.014,0.014,0.014,0.028,0.014,0.028C513.004,290.432,511.936,302.235,508.191,314.579z"/>
					
						<linearGradient id="SVGID_00000107577539500013854700000011982038246297852308_" gradientUnits="userSpaceOnUse" x1="429.6612" y1="306.5485" x2="522.8101" y2="306.5485">
						<stop  offset="0" style="stop-color:#77449B;stop-opacity:0"/>
						<stop  offset="1" style="stop-color:#6057BB"/>
					</linearGradient>
					<path style="opacity:0.58;fill:url(#SVGID_00000107577539500013854700000011982038246297852308_);" d="M510.494,277.852
						c0.527,1.234,0.915,2.621,1.04,4.175c0,0,0-0.014-0.014-0.028c-0.277-0.638-5.451-12.067-14.549-9.113
						c0,0-1.165,0.985-3.176,2.829c-5.825,5.312-18.794,17.823-31.415,34.577c-16.214,21.484-31.332,40.194-32.719,41.9
						c2.219-3.384,49.14-74.48,67.754-81.623c0.042-0.014,0.097-0.042,0.139-0.055c1.484-0.61,14.66-5.978,25.257-9.612
						l-18.253,9.404l-0.485,0.25C504.072,270.557,508.413,272.97,510.494,277.852z"/>
				</g>
			</g>
			<g>
				<g>
					
						<linearGradient id="SVGID_00000093861991853527069280000015722855570997213881_" gradientUnits="userSpaceOnUse" x1="552.2902" y1="248.7711" x2="513.097" y2="153.7413">
						<stop  offset="0" style="stop-color:#421F5A"/>
						<stop  offset="1" style="stop-color:#342D7A"/>
					</linearGradient>
					<path style="fill:url(#SVGID_00000093861991853527069280000015722855570997213881_);" d="M572.436,190.514
						c-0.208-4.48-1.11-8.988-2.58-13.343c-1.678-4.979-4.092-9.764-7.032-14.078l-0.014-0.014c0,0,0,0-0.014,0
						c-4.66-6.838-10.68-12.469-17.198-15.798c-5.612-2.855-9.549-4.103-12.267-4.548c0,0-0.001-0.003-0.001-0.003
						s-15.835-8.15-29.257-3.497c-13.422,4.653-22.907,23.086-24.876,36.151c-1.969,13.064,9.482,30.908,9.482,30.908
						c1.197,1.52,3.739,2.334,7.065,2.398c0.166,0.398,0.322,0.796,0.519,1.198l0.014,0.028c1.331,2.829,3.356,5.686,5.839,8.488
						v0.014c2.621,2.968,5.77,5.867,9.182,8.585c1.234,0.985,2.51,1.956,3.8,2.885c0.361,0.291,14.938,11.609,18.669,14.938
						c3.773,3.356,14.771,11.581,15.063,12.635c0.277,1.04,12.691-1.22,12.691-1.22l3.939-14.993
						c0.888-2.802,3.134-12.483,4.868-23.565C571.742,208.573,572.797,198.503,572.436,190.514z"/>
					
						<linearGradient id="SVGID_00000177460921567194090520000001559803136189067948_" gradientUnits="userSpaceOnUse" x1="546.5411" y1="259.2664" x2="534.7295" y2="200.7452">
						<stop  offset="0" style="stop-color:#421F5A"/>
						<stop  offset="1" style="stop-color:#342D7A;stop-opacity:0"/>
					</linearGradient>
					<path style="opacity:0.64;fill:url(#SVGID_00000177460921567194090520000001559803136189067948_);" d="M565.814,240.024
						c0.061-0.224,0.127-0.471,0.194-0.728c0.007-0.025,0.013-0.048,0.019-0.074c0.065-0.252,0.134-0.521,0.204-0.803
						c0.012-0.048,0.023-0.094,0.036-0.142c0.063-0.255,0.129-0.521,0.196-0.799c0.026-0.108,0.052-0.216,0.079-0.326
						c0.057-0.238,0.115-0.482,0.174-0.735c0.043-0.183,0.086-0.37,0.13-0.56c0.046-0.2,0.092-0.4,0.139-0.607
						c0.066-0.289,0.133-0.587,0.2-0.891c0.029-0.131,0.058-0.258,0.087-0.391c0.636-2.878,1.342-6.358,2.027-10.174
						c0.015-0.081,0.029-0.164,0.044-0.246c0.088-0.491,0.175-0.985,0.261-1.487c0.054-0.311,0.107-0.625,0.16-0.939
						c0.043-0.255,0.086-0.508,0.129-0.765c0.089-0.53,0.176-1.065,0.262-1.603c0-0.003,0.001-0.006,0.002-0.009
						c0.057-0.353,0.114-0.704,0.17-1.06l-0.005,0.002c1.418-9.115,2.476-19.181,2.113-27.173c-0.208-4.48-1.11-8.988-2.58-13.343
						c0,3.037-0.083,6.047-0.277,8.377c-0.624,7.309-5.201,17.892-7.698,22.136c-2.51,4.244-5.909-3.703-7.337-9.792
						c-1.401-5.936-15.922-23.731-16.63-24.591c0.277,0.902,7.684,24.411,7.503,33.19c-0.18,8.946-12.885,17.531-17.726,14.938
						c-4.827-2.594-31.775-20.957-31.775-20.957l0.347,9.418l0.014,0.028c1.331,2.829,3.356,5.687,5.839,8.488v0.014
						c2.626,2.967,5.777,5.859,9.186,8.583l-0.004,0.002c0.031,0.025,0.064,0.048,0.095,0.072c1.245,0.993,2.518,1.965,3.823,2.905
						c1.401,1.098,14.969,11.649,18.551,14.845c3.773,3.356,14.771,11.581,15.062,12.635c0.278,1.04,12.691-1.22,12.691-1.22
						l3.939-14.993c0.05-0.16,0.105-0.342,0.164-0.545c0.054-0.185,0.112-0.395,0.172-0.614
						C565.802,240.067,565.808,240.048,565.814,240.024z"/>
					
						<linearGradient id="SVGID_00000054235653444264855850000000220838419633248445_" gradientUnits="userSpaceOnUse" x1="533.3233" y1="152.9068" x2="562.7965" y2="152.9068">
						<stop  offset="0" style="stop-color:#421F5A"/>
						<stop  offset="1" style="stop-color:#342D7A;stop-opacity:0"/>
					</linearGradient>
					<path style="opacity:0.64;fill:url(#SVGID_00000054235653444264855850000000220838419633248445_);" d="M562.797,163.08
						c-0.458-0.333-7.947-5.673-9.681-7.06c-1.789-1.428-7.171-3.939-12.358-6.616c-5.187-2.691-7.434-6.671-7.434-6.671
						c2.719,0.444,6.657,1.692,12.275,4.549C552.117,150.611,558.136,156.242,562.797,163.08z"/>
				</g>
				
					<linearGradient id="SVGID_00000124135627095052935790000005350385547368363650_" gradientUnits="userSpaceOnUse" x1="453.2608" y1="180.5487" x2="499.7914" y2="248.0181">
					<stop  offset="0" style="stop-color:#421F5A"/>
					<stop  offset="1" style="stop-color:#342D7A"/>
				</linearGradient>
				<path style="fill:url(#SVGID_00000124135627095052935790000005350385547368363650_);" d="M494.056,201.921
					c-1.606,31.547-18.08,49.345-18.08,49.345c8.59-11.812,13.064-47.604,13.064-47.604L494.056,201.921z"/>
				<g>
					
						<linearGradient id="SVGID_00000081635130211840019290000011261084564526340785_" gradientUnits="userSpaceOnUse" x1="548.7371" y1="260.4663" x2="563.7697" y2="260.4663">
						<stop  offset="0" style="stop-color:#B3A9F0"/>
						<stop  offset="1" style="stop-color:#DBCFF2"/>
					</linearGradient>
					<path style="fill:url(#SVGID_00000081635130211840019290000011261084564526340785_);" d="M563.725,262.708
						c-0.056,0.263-0.333,0.541-0.749,0.818c-0.735,0.513-1.942,1.026-3.328,1.47c-3.163,0.985-7.282,1.581-8.863,0.666
						c-2.691-1.54-1.956-8.197-1.956-8.197s2.843-2.649,6.782-2.649c3.939,0,5.909,1.428,5.909,1.428
						S564.141,260.933,563.725,262.708z"/>
					
						<linearGradient id="SVGID_00000039112993087723743340000014885481246570540218_" gradientUnits="userSpaceOnUse" x1="554.5823" y1="263.1145" x2="562.8142" y2="258.5065">
						<stop  offset="0" style="stop-color:#B3A9F0"/>
						<stop  offset="1" style="stop-color:#DBCFF2;stop-opacity:0"/>
					</linearGradient>
					<path style="opacity:0.56;fill:url(#SVGID_00000039112993087723743340000014885481246570540218_);" d="M562.976,263.526
						c-0.735,0.513-1.942,1.026-3.328,1.47l-5.104,0.388l-3.176-0.652c0,0-1.623-0.915,0-2.302c1.623-1.401,7.06-2.344,7.06-2.344
						s-1.678-3.897-0.333-4.022c1.345-0.139,3.939,1.872,4.327,2.954C562.671,259.74,562.879,262.07,562.976,263.526z"/>
				</g>
				<g>
					
						<linearGradient id="SVGID_00000047741227673590541970000017970800745850201527_" gradientUnits="userSpaceOnUse" x1="560.683" y1="266.94" x2="577.5952" y2="343.9839">
						<stop  offset="0" style="stop-color:#421F5A"/>
						<stop  offset="1" style="stop-color:#342D7A"/>
					</linearGradient>
					<path style="fill:url(#SVGID_00000047741227673590541970000017970800745850201527_);" d="M589.107,315.564
						c-0.846,15.298-24.771,52.136-25.659,53.468c0.291-1.151,6.075-23.537,3.467-35.562c-1.331-6.089-4.397-11.304-7.517-17.004
						l-0.014-0.014c-3.218-5.853-6.505-12.219-8.044-20.569c-3.037-16.463,0-31.138,0-31.138s0.014,0,0.028-0.014
						c3.412-3.204,10.888-2.136,10.888-2.136C581.41,270.473,589.953,300.002,589.107,315.564z"/>
					
						<linearGradient id="SVGID_00000034777962567408084850000004697769969888374916_" gradientUnits="userSpaceOnUse" x1="561.2164" y1="256.6888" x2="566.5853" y2="356.7296">
						<stop  offset="0" style="stop-color:#421F5A"/>
						<stop  offset="1" style="stop-color:#342D7A;stop-opacity:0"/>
					</linearGradient>
					<path style="opacity:0.64;fill:url(#SVGID_00000034777962567408084850000004697769969888374916_);" d="M555.257,266.711
						c0,0,10.387,5.548,14.32,24.697C569.577,291.408,561.163,273.78,555.257,266.711z"/>
					
						<linearGradient id="SVGID_00000024694962874294380000000013629683164024070066_" gradientUnits="userSpaceOnUse" x1="568.5421" y1="256.2955" x2="573.9111" y2="356.3363">
						<stop  offset="0" style="stop-color:#421F5A"/>
						<stop  offset="1" style="stop-color:#342D7A;stop-opacity:0"/>
					</linearGradient>
					<path style="opacity:0.64;fill:url(#SVGID_00000024694962874294380000000013629683164024070066_);" d="M589.107,315.564
						c-0.846,15.298-24.771,52.136-25.659,53.468c0.291-1.151,6.075-23.537,3.467-35.562c-1.331-6.089-4.397-11.304-7.517-17.004
						c7.878,8.128,11.789,19.82,11.789,19.82c3.898-11.054,1.318-24.383,1.318-24.383c4.91,9.307,1.72,28.988,1.72,28.988
						c4.66-8.225,7.698-19.501,7.587-25.146c-0.125-5.631-10.097-36.949-18.044-45.187c-7.587-7.85-12.011-6.006-12.4-5.825
						c3.412-3.204,10.888-2.136,10.888-2.136C581.41,270.473,589.953,300.002,589.107,315.564z"/>
				</g>
			</g>
		</g>
	</g>
</g>
</svg>
