<?xml version="1.0" encoding="utf-8"?>
<!-- Generator: Adobe Illustrator 27.5.0, SVG Export Plug-In . SVG Version: 6.00 Build 0)  -->
<svg version="1.1" xmlns="http://www.w3.org/2000/svg" xmlns:xlink="http://www.w3.org/1999/xlink" x="0px" y="0px"
	 viewBox="0 0 500 500" style="enable-background:new 0 0 500 500;" xml:space="preserve">
<g id="Floor">
	<path style="fill:#F5F5F5;" d="M417.112,244.536c-92.898-53.634-243.023-53.634-335.316,0.001
		c-92.3,53.639-91.81,140.597,1.087,194.231c92.903,53.638,243.029,53.637,335.328-0.002
		C510.504,385.132,510.015,298.173,417.112,244.536z"/>
</g>
<g id="Bricks">
	<g>
		<g>
			<g>
				<g>
					<path style="fill:#F0F0F0;" d="M103.079,148.038c0.549-0.317,1.001-0.065,1.003,0.572l0.017,6.138
						c0.002,0.637-0.447,1.409-0.997,1.726l-16.183,9.343c-0.55,0.317-1.001,0.065-1.003-0.572l-0.017-6.138
						c-0.002-0.637,0.447-1.409,0.996-1.726L103.079,148.038z"/>
				</g>
				<g>
					<path style="fill:#F0F0F0;" d="M103.079,169.121c0.549-0.317,1.001-0.065,1.003,0.572l0.017,6.138
						c0.002,0.637-0.447,1.409-0.997,1.726L86.92,186.9c-0.55,0.317-1.001,0.065-1.003-0.572l-0.017-6.138
						c-0.002-0.637,0.447-1.409,0.996-1.726L103.079,169.121z"/>
				</g>
				<g>
					<path style="fill:#F0F0F0;" d="M113.836,152.251c0.549-0.317,1.001-0.065,1.003,0.572l0.017,6.138
						c0.002,0.637-0.447,1.409-0.997,1.726l-16.183,9.343c-0.549,0.317-1.001,0.065-1.003-0.572l-0.017-6.138
						c-0.002-0.636,0.447-1.409,0.997-1.726L113.836,152.251z"/>
				</g>
			</g>
		</g>
		<g>
			<g>
				<g>
					<path style="fill:#F0F0F0;" d="M172.783,71.149c0.549-0.317,1.001-0.065,1.003,0.572l0.017,6.138
						c0.002,0.637-0.447,1.409-0.997,1.726l-16.183,9.343c-0.549,0.317-1.001,0.065-1.003-0.572l-0.017-6.138
						c-0.002-0.636,0.447-1.409,0.997-1.726L172.783,71.149z"/>
				</g>
				<g>
					<path style="fill:#F0F0F0;" d="M172.783,92.232c0.549-0.317,1.001-0.065,1.003,0.572l0.017,6.138
						c0.002,0.637-0.447,1.409-0.997,1.726l-16.183,9.343c-0.549,0.317-1.001,0.065-1.003-0.572l-0.017-6.138
						c-0.002-0.636,0.447-1.409,0.997-1.726L172.783,92.232z"/>
				</g>
				<g>
					<path style="fill:#F0F0F0;" d="M163.176,87.259c0.549-0.317,1.001-0.065,1.003,0.572l0.017,6.138
						c0.002,0.637-0.447,1.409-0.997,1.726l-16.183,9.343c-0.55,0.317-1.001,0.065-1.003-0.572l-0.017-6.138
						c-0.002-0.637,0.447-1.409,0.997-1.726L163.176,87.259z"/>
				</g>
				<g>
					<path style="fill:#F0F0F0;" d="M183.54,75.362c0.549-0.317,1.001-0.065,1.003,0.572l0.017,6.138
						c0.002,0.637-0.447,1.409-0.997,1.726l-16.183,9.343c-0.549,0.317-1.001,0.065-1.003-0.572l-0.017-6.138
						c-0.002-0.636,0.447-1.409,0.997-1.726L183.54,75.362z"/>
				</g>
			</g>
		</g>
		<g>
			<g>
				<g>
					<path style="fill:#F0F0F0;" d="M418.004,73.847c-0.549-0.317-1.001-0.065-1.003,0.572l-0.017,6.138
						c-0.002,0.637,0.447,1.409,0.997,1.726l16.183,9.343c0.549,0.317,1.001,0.065,1.003-0.572l0.017-6.138
						c0.002-0.636-0.447-1.409-0.997-1.726L418.004,73.847z"/>
				</g>
				<g>
					<path style="fill:#F0F0F0;" d="M418.004,94.93c-0.549-0.317-1.001-0.065-1.003,0.572l-0.017,6.138
						c-0.002,0.637,0.447,1.409,0.997,1.726l16.183,9.343c0.549,0.317,1.001,0.065,1.003-0.572l0.017-6.138
						c0.002-0.636-0.447-1.409-0.997-1.726L418.004,94.93z"/>
				</g>
				<g>
					<path style="fill:#F0F0F0;" d="M427.611,89.957c-0.55-0.317-1.001-0.065-1.003,0.572l-0.017,6.138
						c-0.002,0.637,0.447,1.409,0.997,1.726l16.183,9.343c0.549,0.317,1.001,0.065,1.003-0.572l0.017-6.138
						c0.002-0.637-0.447-1.409-0.997-1.726L427.611,89.957z"/>
				</g>
				<g>
					<path style="fill:#F0F0F0;" d="M407.247,78.061c-0.549-0.317-1.001-0.065-1.003,0.572l-0.017,6.138
						c-0.002,0.637,0.447,1.409,0.996,1.726l16.183,9.343c0.549,0.317,1.001,0.065,1.003-0.572l0.017-6.138
						c0.002-0.636-0.447-1.409-0.997-1.726L407.247,78.061z"/>
				</g>
			</g>
		</g>
		<g>
			<g>
				<g>
					<path style="fill:#F0F0F0;" d="M445.66,217.304c-0.55-0.317-1.001-0.065-1.003,0.572l-0.017,6.138
						c-0.002,0.637,0.447,1.409,0.996,1.726l16.183,9.343c0.549,0.317,1.001,0.065,1.003-0.572l0.017-6.138
						c0.002-0.637-0.447-1.409-0.997-1.726L445.66,217.304z"/>
				</g>
				<g>
					<path style="fill:#F0F0F0;" d="M445.66,238.388c-0.55-0.317-1.001-0.065-1.003,0.572l-0.017,6.138
						c-0.002,0.637,0.447,1.409,0.996,1.726l16.183,9.343c0.549,0.317,1.001,0.065,1.003-0.572l0.017-6.138
						c0.002-0.637-0.447-1.409-0.997-1.726L445.66,238.388z"/>
				</g>
				<g>
					<path style="fill:#F0F0F0;" d="M455.267,233.414c-0.549-0.317-1.001-0.065-1.003,0.572l-0.017,6.138
						c-0.002,0.637,0.447,1.409,0.997,1.726l16.183,9.343c0.55,0.317,1.001,0.065,1.003-0.572l0.017-6.138
						c0.002-0.637-0.447-1.409-0.997-1.726L455.267,233.414z"/>
				</g>
			</g>
		</g>
	</g>
</g>
<g id="Shadows">
	<path style="fill:#E6E6E6;" d="M267.763,240.496l-65.535-37.836c-1.699-0.981-3.793-0.978-5.489,0.008l-65.076,37.818
		c-1.819,1.057-1.816,3.686,0.007,4.738l65.535,37.837c1.699,0.981,3.793,0.978,5.489-0.008l65.075-37.818
		C269.589,244.178,269.585,241.548,267.763,240.496z"/>
	<path style="fill:#E6E6E6;" d="M169.888,295.949l-65.535-37.836c-1.699-0.981-3.793-0.978-5.489,0.008l-65.076,37.818
		c-1.819,1.057-1.816,3.686,0.007,4.738l65.535,37.837c1.699,0.981,3.793,0.978,5.489-0.008l65.076-37.818
		C171.714,299.63,171.71,297.001,169.888,295.949z"/>
	<path style="fill:#E6E6E6;" d="M191.744,395.336l-65.535-37.836c-1.699-0.981-3.793-0.978-5.489,0.008l-65.075,37.818
		c-1.819,1.057-1.816,3.686,0.007,4.738l65.535,37.836c1.699,0.981,3.793,0.978,5.489-0.008l65.075-37.818
		C193.57,399.017,193.566,396.388,191.744,395.336z"/>
	<path style="fill:#E6E6E6;" d="M292.819,426.331l-65.535-37.836c-1.699-0.981-3.793-0.978-5.489,0.008L156.72,426.32
		c-1.819,1.057-1.816,3.686,0.007,4.738l65.535,37.837c1.699,0.981,3.793,0.978,5.489-0.008l65.076-37.818
		C294.646,430.012,294.642,427.383,292.819,426.331z"/>
	<path style="fill:#E6E6E6;" d="M449.149,328.706c-34.472-19.903-90.18-19.902-124.427,0.001
		c-34.25,19.904-34.068,52.172,0.403,72.074c34.474,19.904,90.182,19.904,124.432-0.001
		C483.805,380.877,483.623,348.609,449.149,328.706z"/>
</g>
<g id="Boxes">
	<g>
		<polygon style="fill:#37474F;" points="264.698,184.071 231.478,164.765 225.323,161.189 225.323,161.189 199.845,146.382 
			134.567,184.07 134.735,243.305 199.588,280.994 264.866,243.306 		"/>
		<g>
			<g>
				<polygon style="fill:#455A64;" points="134.567,184.07 199.845,146.382 264.698,184.071 199.42,221.759 				"/>
				<polygon style="fill:#455A64;" points="199.42,221.759 199.588,280.994 134.735,243.305 134.567,184.07 				"/>
				<polygon style="fill:#455A64;" points="264.698,184.071 264.866,243.306 199.588,280.994 199.42,221.759 				"/>
				<polygon style="opacity:0.2;fill:#FFFFFF;" points="134.567,184.07 199.845,146.382 264.698,184.071 199.42,221.759 				"/>
				<polygon style="opacity:0.1;" points="264.698,184.071 264.866,243.306 199.588,280.994 199.42,221.759 				"/>
				<polygon style="opacity:0.3;fill:#FFFFFF;" points="225.323,161.189 237.953,168.528 172.675,206.216 160.046,198.877 				"/>
				<polygon style="opacity:0.3;fill:#FFFFFF;" points="160.046,221.759 172.675,229.098 172.675,206.216 160.046,198.877 				"/>
				<polygon style="opacity:0.3;fill:#FFFFFF;" points="160.046,257.971 172.675,265.31 172.675,250.2 160.046,242.86 				"/>
				<polygon style="opacity:0.4;fill:#FFFFFF;" points="213.306,209.135 199.672,201.263 186.127,209.135 199.761,217.007 				"/>
			</g>
		</g>
	</g>
	<g>
		<polygon style="fill:#37474F;" points="101.714,201.835 76.235,216.642 76.235,216.642 73.463,218.253 36.86,239.524 
			36.692,298.759 101.97,336.447 166.823,298.758 166.991,239.523 		"/>
		<g>
			<g>
				<polygon style="fill:#455A64;" points="166.991,239.523 101.714,201.835 36.86,239.524 102.138,277.212 				"/>
				<polygon style="fill:#455A64;" points="102.138,277.212 101.97,336.447 166.823,298.758 166.991,239.523 				"/>
				<polygon style="fill:#455A64;" points="36.86,239.524 36.692,298.759 101.97,336.447 102.138,277.212 				"/>
				<polygon style="opacity:0.4;fill:#FFFFFF;" points="166.991,239.523 101.714,201.835 36.86,239.524 102.138,277.212 				"/>
				<polygon style="opacity:0.3;fill:#FFFFFF;" points="36.86,239.524 36.692,298.759 101.97,336.447 102.138,277.212 				"/>
				<polygon style="opacity:0.3;fill:#FFFFFF;" points="76.235,216.642 63.605,223.981 128.883,261.669 141.512,254.33 				"/>
				<polygon style="opacity:0.3;fill:#FFFFFF;" points="141.512,277.212 128.883,284.551 128.883,261.669 141.512,254.33 				"/>
				<polygon style="opacity:0.3;fill:#FFFFFF;" points="141.512,313.424 128.883,320.763 128.883,305.653 141.512,298.313 				"/>
			</g>
		</g>
	</g>
	<g>
		<polygon style="fill:#BA68C8;" points="127.209,201.466 107.6,190.07 101.578,186.571 101.578,186.571 84.993,176.932 
			42.5,201.465 42.61,240.024 84.826,264.558 127.318,240.025 		"/>
		<g>
			<g>
				<polygon style="fill:#BA68C8;" points="42.5,201.465 84.993,176.932 127.209,201.466 84.716,225.999 				"/>
				<polygon style="fill:#BA68C8;" points="84.716,225.999 84.826,264.558 42.61,240.024 42.5,201.465 				"/>
				<polygon style="fill:#BA68C8;" points="127.209,201.466 127.318,240.025 84.826,264.558 84.716,225.999 				"/>
				<polygon style="opacity:0.4;fill:#FFFFFF;" points="42.5,201.465 84.993,176.932 127.209,201.466 84.716,225.999 				"/>
				<polygon style="opacity:0.1;fill:#FFFFFF;" points="84.716,225.999 84.826,264.558 42.61,240.024 42.5,201.465 				"/>
				<polygon style="opacity:0.3;fill:#FFFFFF;" points="127.209,201.466 127.318,240.025 84.826,264.558 84.716,225.999 				"/>
				<polygon style="opacity:0.3;fill:#FFFFFF;" points="101.578,186.571 109.799,191.348 67.307,215.882 59.086,211.104 				"/>
				<polygon style="opacity:0.3;fill:#FFFFFF;" points="59.086,225.999 67.307,230.777 67.307,215.882 59.086,211.104 				"/>
				<polygon style="opacity:0.3;fill:#FFFFFF;" points="59.086,249.571 67.307,254.349 67.307,244.512 59.086,239.735 				"/>
				<polygon style="opacity:0.4;fill:#FFFFFF;" points="120.835,201.182 111.96,196.058 103.143,201.182 112.018,206.306 				"/>
			</g>
		</g>
	</g>
	<g>
		<polygon style="fill:#BA68C8;" points="188.679,338.91 154.748,319.192 149.304,316.028 149.304,316.028 123.826,301.221 
			58.548,338.91 58.716,398.144 123.569,435.833 188.847,398.145 		"/>
		<g>
			<g>
				<polygon style="fill:#BA68C8;" points="58.548,338.91 123.826,301.222 188.679,338.91 123.401,376.598 				"/>
				<polygon style="fill:#BA68C8;" points="123.401,376.598 123.569,435.833 58.716,398.144 58.548,338.91 				"/>
				<polygon style="fill:#BA68C8;" points="188.679,338.91 188.847,398.145 123.569,435.833 123.401,376.598 				"/>
				<polygon style="opacity:0.2;fill:#FFFFFF;" points="58.548,338.91 123.826,301.222 188.679,338.91 123.401,376.598 				"/>
				<polygon style="opacity:0.1;" points="188.679,338.91 188.847,398.145 123.569,435.833 123.401,376.598 				"/>
				<polygon style="opacity:0.3;fill:#FFFFFF;" points="149.304,316.028 161.934,323.368 96.656,361.056 84.027,353.716 				"/>
				<polygon style="opacity:0.3;fill:#FFFFFF;" points="84.027,376.598 96.656,383.938 96.656,361.056 84.027,353.716 				"/>
				<polygon style="opacity:0.3;fill:#FFFFFF;" points="84.027,412.81 96.656,420.15 96.656,405.039 84.027,397.699 				"/>
				<polygon style="opacity:0.4;fill:#FFFFFF;" points="94.974,337.798 81.34,329.927 67.794,337.798 81.428,345.67 				"/>
			</g>
		</g>
	</g>
	<g>
		<polygon style="fill:#BA68C8;" points="224.645,332.217 199.166,347.023 199.166,347.023 193.722,350.187 159.792,369.905 
			159.624,429.14 224.901,466.828 289.755,429.139 289.923,369.905 		"/>
		<g>
			<g>
				<polygon style="fill:#BA68C8;" points="289.923,369.905 224.645,332.217 159.792,369.905 225.069,407.593 				"/>
				<polygon style="fill:#BA68C8;" points="225.069,407.593 224.901,466.828 289.755,429.139 289.923,369.905 				"/>
				<polygon style="fill:#BA68C8;" points="159.792,369.905 159.624,429.14 224.901,466.828 225.069,407.593 				"/>
				<polygon style="opacity:0.2;fill:#FFFFFF;" points="289.923,369.905 224.645,332.217 159.792,369.905 225.069,407.593 				"/>
				<polygon style="opacity:0.1;fill:#FFFFFF;" points="159.792,369.905 159.624,429.14 224.901,466.828 225.069,407.593 				"/>
				<polygon style="opacity:0.3;fill:#FFFFFF;" points="199.166,347.023 186.537,354.363 251.814,392.051 264.444,384.711 				"/>
				<polygon style="opacity:0.3;fill:#FFFFFF;" points="264.444,407.593 251.814,414.933 251.814,392.051 264.444,384.711 				"/>
				<polygon style="opacity:0.3;fill:#FFFFFF;" points="264.444,443.805 251.814,451.145 251.814,436.034 264.444,428.695 				"/>
			</g>
		</g>
	</g>
	<g>
		<polygon style="fill:#37474F;" points="224.671,292.417 204.455,304.165 204.455,304.165 198.29,307.748 173.213,322.321 
			173.08,369.321 224.875,399.225 276.333,369.32 276.466,322.321 		"/>
		<g>
			<g>
				<polygon style="fill:#455A64;" points="276.466,322.321 224.671,292.417 173.213,322.321 225.008,352.225 				"/>
				<polygon style="fill:#455A64;" points="225.008,352.225 224.875,399.225 276.333,369.32 276.466,322.321 				"/>
				<polygon style="fill:#455A64;" points="173.213,322.321 173.08,369.321 224.875,399.225 225.008,352.225 				"/>
				<polygon style="opacity:0.4;fill:#FFFFFF;" points="276.466,322.321 224.671,292.417 173.213,322.321 225.008,352.225 				"/>
				<polygon style="opacity:0.1;fill:#FFFFFF;" points="225.008,352.225 224.875,399.225 276.333,369.32 276.466,322.321 				"/>
				<polygon style="opacity:0.3;fill:#FFFFFF;" points="173.213,322.321 173.08,369.321 224.875,399.225 225.008,352.225 				"/>
				<polygon style="opacity:0.3;fill:#FFFFFF;" points="204.455,304.165 194.434,309.989 246.229,339.892 256.25,334.069 				"/>
				<polygon style="opacity:0.3;fill:#FFFFFF;" points="256.25,352.225 246.229,358.048 246.229,339.892 256.25,334.069 				"/>
				<polygon style="opacity:0.3;fill:#FFFFFF;" points="256.25,380.957 246.229,386.781 246.229,374.791 256.25,368.968 				"/>
				<polygon style="opacity:0.4;fill:#FFFFFF;" points="235.623,342.375 224.805,336.129 214.057,342.375 224.875,348.621 				"/>
			</g>
		</g>
	</g>
</g>
<g id="Character">
	<g>
		<g>
			<g>
				<path style="fill:#455A64;" d="M313.86,351.659c2.588,2.716,6.507,3.867,10.256,3.771c3.75-0.096,7.38-1.31,10.85-2.736
					c3.47-1.426,7.825-5.419,11.576-5.344c3.465,0.069,7.557-0.378,10.973-0.751c0.333-7.571-1.56-14.86-1.56-14.86l-17.513-0.463
					c-4.727,6.475-13.922,11.863-20.878,13.884c-2.234,0.649-3.885,2.463-4.322,4.605c0.007,0.037,0.005,0.073,0.013,0.111
					C313.501,350.996,313.86,351.659,313.86,351.659z"/>
				<path style="fill:#263238;" d="M346.541,347.349c-3.75-0.075-8.106,3.918-11.576,5.344c-3.47,1.426-7.1,2.641-10.85,2.736
					c-3.75,0.096-7.669-1.055-10.256-3.771c0,0-0.359-0.663-0.605-1.783c-0.008-0.037-0.005-0.074-0.013-0.111
					c-0.152,0.75-0.162,1.538,0.013,2.333c0.247,1.121,0.605,1.784,0.605,1.784c2.588,2.716,6.507,3.867,10.256,3.771
					c3.75-0.096,7.38-1.31,10.85-2.736c3.47-1.426,7.825-5.419,11.576-5.344c3.857,0.077,7.189-0.236,10.801-0.624
					c0.087-0.781,0.137-1.566,0.171-2.349C354.098,346.972,350.006,347.418,346.541,347.349z"/>
			</g>
			<g>
				<path style="fill:#263238;" d="M444.576,367.986c-0.015,1.919-0.151,3.829-0.564,5.7c-0.724,3.274-2.41,6.469-5.211,8.311
					c-2.414,1.588-5.395,2.029-8.279,2.203c-2.553,0.155-5.181,0.12-7.575-0.782c-1.818-0.685-3.484-1.957-4.433-3.62
					c0.007,0.032,0.009,0.066,0.017,0.098c0.57,2.493,2.709,4.408,5.103,5.31c2.393,0.902,5.022,0.936,7.574,0.782
					c2.884-0.175,5.866-0.615,8.279-2.203c2.801-1.843,4.487-5.037,5.211-8.311c0.414-1.871,0.549-3.781,0.564-5.7
					c0.021-2.651,1.122-5.154,3.056-6.967c0.471-0.441,0.921-0.898,1.333-1.372c0.595-0.684,0.882-1.581,0.814-2.486
					c-0.027-0.355-0.065-0.701-0.109-1.043c-0.689,0.807-2.315,2.728-2.724,3.112C445.698,362.832,444.596,365.335,444.576,367.986z
					"/>
				<path style="fill:#455A64;" d="M430.201,348.13c0.726,3.868,0.021,7.908-1.463,11.553c-1.484,3.645-3.716,6.937-6.116,10.057
					c-1.152,1.498-2.356,2.978-3.201,4.669c-0.83,1.661-1.291,3.574-0.908,5.388c0.949,1.663,2.615,2.935,4.433,3.62
					c2.393,0.902,5.022,0.936,7.575,0.782c2.884-0.175,5.865-0.615,8.279-2.203c2.801-1.843,4.487-5.038,5.211-8.311
					c0.414-1.871,0.549-3.781,0.564-5.7c0.021-2.651,1.122-5.154,3.056-6.967c0.409-0.384,2.035-2.305,2.724-3.112
					c-0.618-4.72-2.812-8.063-2.812-8.063L430.201,348.13z"/>
			</g>
			<g>
				<path style="fill:#37474F;" d="M365.918,184.661c0,0-34.787,61.602-34.402,77.783c0.385,16.181,4.161,69.782,4.161,69.782
					c9.066,5.298,22.165,1.349,22.165,1.349c1.059-51.048,8.232-52.801,4.957-71.486c8.603-15.005,26.768-38.906,26.768-38.906
					c3.324,28.596,7.966,51.887,10.188,62.203c0.796,3.697,2.007,7.281,3.611,10.706l25.232,53.881c8.861,4.623,20.034,0,20.034,0
					c-7.021-43.281-5.687-41.863-19.709-65.764c-0.246-45.076-2.345-98.75-2.345-98.75L365.918,184.661z"/>
				<path style="opacity:0.3;" d="M376.661,210.171c0.85,6.586,7.329,11.419,7.329,11.419
					c-9.285,11.391-14.948,24.483-16.095,32.216c9.173-14.174,21.672-30.622,21.672-30.622c-0.478-6.214-1.006-8.952-1.006-8.952
					C383.991,214.632,378.042,211.445,376.661,210.171z"/>
			</g>
		</g>
		<g>
			<path style="fill:#BA68C8;" d="M345.598,115.757c-9.438-0.54-11.907,4.398-17.873,9.952
				c-5.966,5.555-17.179,16.356-17.179,16.356c1.851,13.27,12.447,17.59,12.447,17.59l20.779-15.327L345.598,115.757z"/>
			<path style="opacity:0.4;" d="M345.598,115.757c-9.438-0.54-11.907,4.398-17.873,9.952c-5.966,5.555-17.179,16.356-17.179,16.356
				c1.851,13.27,12.447,17.59,12.447,17.59l20.779-15.327L345.598,115.757z"/>
		</g>
		<g>
			<path style="fill:#BA68C8;" d="M420.703,196.92c-12.427,4.325-36.938,9.775-57.159-4.61c-2.497-1.777-3.592-4.961-2.696-7.892
				c0.808-2.643,0.998-2.725-1.92-14.604c-2.849-11.599-20.197-29.396-20.814-35.568c-0.617-6.172,0.206-16.87,7.484-18.49
				c13.501-2.854,38.884,0,38.884,0l13.382,5.556c14.058,17.242,26.343,46.539,29.916,63.097
				C428.936,189.771,425.882,195.117,420.703,196.92z"/>
			<path style="opacity:0.3;" d="M420.703,196.92c-12.427,4.325-36.938,9.775-57.159-4.61c-2.497-1.777-3.592-4.961-2.696-7.892
				c0.808-2.643,0.998-2.725-1.92-14.604c-2.849-11.599-20.197-29.396-20.814-35.568c-0.617-6.172,0.206-16.87,7.484-18.49
				c13.501-2.854,38.884,0,38.884,0l13.382,5.556c14.058,17.242,26.343,46.539,29.916,63.097
				C428.936,189.771,425.882,195.117,420.703,196.92z"/>
		</g>
		<path style="fill:#263238;" d="M327.266,93.567c-2.864-2.057-2.484-5.177-3.212-8.627c-0.729-3.45,0.381-7.883,2.168-10.922
			c1.997-10.692,39.853-9.421,40.196-1.573c1.713-0.77,2.735,6.803,2.873,8.676c0.525,7.158,1.729,13.111-0.525,19.882
			c-1.165,3.501-2.848,7.211-6.165,8.826L327.266,93.567z"/>
		<g>
			<g>
				<path style="fill:#BA68C8;" d="M372.838,109.83c-2.388-0.894-7.584-1.118-7.584-1.118l4.524,7.045L372.838,109.83z"/>
				<path style="opacity:0.7;" d="M372.838,109.83c-2.388-0.894-7.584-1.118-7.584-1.118l4.524,7.045L372.838,109.83z"/>
			</g>
			<g>
				<path style="fill:#BA68C8;" d="M356.271,113.423c-3.106,1.234-5.993,3.015-8.491,5.235c-0.127,2.463-0.833,5.08-1.653,7.406
					c2.054-0.864,4.049-2.026,5.769-3.442c1.23,1.164,2.65,2.124,4.304,2.491c0.345-1.908,0.638-3.854,0.759-5.788
					C357.081,117.39,356.818,115.283,356.271,113.423z"/>
				<path style="opacity:0.4;" d="M356.271,113.423c-3.106,1.234-5.993,3.015-8.491,5.235c-0.127,2.463-0.833,5.08-1.653,7.406
					c2.054-0.864,4.049-2.026,5.769-3.442c1.23,1.164,2.65,2.124,4.304,2.491c0.345-1.908,0.638-3.854,0.759-5.788
					C357.081,117.39,356.818,115.283,356.271,113.423z"/>
				<path style="opacity:0.4;" d="M348.947,124.654c1.038-0.603,2.034-1.279,2.95-2.032c-1.298-1.236-2.308-2.878-2.308-2.878
					C349.744,121.501,349.382,123.261,348.947,124.654z"/>
			</g>
			<g>
				<path style="fill:#FFA8A7;" d="M345.322,108.611c0,0,9.052,8.086,8.148,11.462c-0.347,1.294-0.603,3.961,2.956,5.342
					c4.827,1.873,12.118-2.76,15.084-6.905c0.618-0.864,1.355-1.691,1.328-2.753l-8.382-19.623L345.322,108.611z"/>
			</g>
			<path style="fill:#F28F8F;" d="M362.891,106.275c0.731-2.975,0.503-6.021-0.127-9.037l-17.442,11.373
				c0,0,5.175,4.626,7.306,8.342c1.618-0.469,3.159-1.201,4.526-2.185C359.986,112.731,362.059,109.662,362.891,106.275z"/>
			<path style="fill:#BA68C8;" d="M357.117,125.631c1.706-1.366,3.276-6.226,3.276-6.226c7.627-3.589,12.445-9.574,12.445-9.574
				l3.027,5.183c-1.19,6.036-10.013,15.308-10.013,15.308l-2.505-5.49C361.44,126.507,358.49,126.237,357.117,125.631z"/>
			<path style="opacity:0.4;" d="M357.117,125.631c1.706-1.366,3.276-6.226,3.276-6.226c7.627-3.589,12.445-9.574,12.445-9.574
				l3.027,5.183c-1.19,6.036-10.013,15.308-10.013,15.308l-2.505-5.49C361.44,126.507,358.49,126.237,357.117,125.631z"/>
			<path style="opacity:0.4;" d="M359.08,126.079c1.41,0.13,3.008-0.14,4.267-1.247l-1.589-3.482
				C361.265,123.022,360.271,124.777,359.08,126.079z"/>
		</g>
		<g>
			<polygon style="fill:#BA68C8;" points="304.08,96.269 275.279,113.007 275.278,113.007 270.698,115.669 230.769,138.873 
				230.579,205.834 304.37,248.437 377.682,205.833 377.871,138.873 			"/>
			<g>
				<g>
					<polygon style="fill:#BA68C8;" points="377.871,138.873 304.08,96.269 230.769,138.873 304.56,181.477 					"/>
					<polygon style="fill:#BA68C8;" points="304.56,181.477 304.37,248.437 377.682,205.833 377.871,138.873 					"/>
					<polygon style="fill:#BA68C8;" points="230.769,138.873 230.579,205.834 304.37,248.437 304.56,181.477 					"/>
					<polygon style="opacity:0.4;fill:#FFFFFF;" points="377.871,138.873 304.08,96.269 230.769,138.873 304.56,181.477 					"/>
					<polygon style="opacity:0.1;fill:#FFFFFF;" points="304.56,181.477 304.37,248.437 377.682,205.833 377.871,138.873 					"/>
					<polygon style="opacity:0.3;fill:#FFFFFF;" points="230.769,138.873 230.579,205.834 304.37,248.437 304.56,181.477 					"/>
					<polygon style="opacity:0.3;fill:#FFFFFF;" points="275.278,113.007 261.002,121.304 334.793,163.907 349.07,155.61 					"/>
					<polygon style="opacity:0.3;fill:#FFFFFF;" points="349.07,181.477 334.793,189.773 334.793,163.907 349.07,155.61 					"/>
					<polygon style="opacity:0.3;fill:#FFFFFF;" points="349.07,222.459 334.793,230.756 334.793,213.627 349.07,205.33 					"/>
					<polygon style="opacity:0.4;fill:#FFFFFF;" points="319.597,167.469 304.511,158.759 289.523,167.469 304.609,176.179 					"/>
				</g>
			</g>
		</g>
		<g>
			<path style="fill:#FFA8A7;" d="M377.808,161.132l-0.367,21.165c-9.017,10.279-25.158,30.912-25.158,30.912
				c-4.302-2.39-9.685,0.372-11.88-1.647c-0.636-0.585-1.942-0.331-2.566,0.267c-0.624,0.598-0.79,1.581-0.525,2.403
				c0.265,0.823,0.908,1.487,1.658,1.917c0.75,0.43,1.603,0.647,2.456,0.787c0.785,0.129,1.589,0.2,2.336,0.477
				c0.746,0.277,1.449,0.804,1.707,1.557c-0.947,2.533-2.803,5.999-4.432,8.157l-3.942,2.291c1.49,1.196,3.078,2.517,4.988,2.548
				c1.674,0.027,3.319-1.009,4.017-2.531c1.198,0.982,3.276,0.935,4.778,0.555c1.502-0.38,2.826-1.27,4.007-2.273
				c3.159-2.683,5.512-6.303,6.681-10.279l28.579-18.807c4.688-3.085,7.783-8.073,8.467-13.642l2.427-19.772L377.808,161.132z"/>
			<g>
				<path style="fill:#BA68C8;" d="M384.482,115.757c-8.139,13.907-8.139,37.251-8.617,52.041
					c11.313,10.304,26.567,4.23,26.567,4.23C407.867,130.299,408.785,117.017,384.482,115.757z"/>
				<path style="opacity:0.4;" d="M384.482,115.757c-8.139,13.907-8.139,37.251-8.617,52.041c11.313,10.304,26.567,4.23,26.567,4.23
					C407.867,130.299,408.785,117.017,384.482,115.757z"/>
				<path style="opacity:0.2;fill:#FFFFFF;" d="M376.062,161.132c-0.072,2.352-0.131,4.599-0.198,6.666
					c11.313,10.304,26.567,4.23,26.567,4.23c0.291-2.234,0.566-4.37,0.828-6.444C399.3,166.498,385.664,168.878,376.062,161.132z"/>
			</g>
		</g>
		<g>
			<path style="fill:#FFA8A7;" d="M326.3,76.317c-1.28,9.677-0.638,19.604,1.878,29.035c0.551,2.066,1.202,4.131,2.304,5.963
				c1.103,1.832,2.703,3.431,4.706,4.18c2.463,0.922,5.201,0.477,7.791,0.021c4.737-0.835,9.596-1.715,13.711-4.205
				c4.115-2.49,7.378-6.99,6.979-11.783c2.397,1.376,5.428,1.738,7.866,0.435c2.437-1.303,4.125-3.911,4.314-6.669
				c0.184-2.684-1.368-5.675-4.005-6.206c-1.611-0.325-3.296,0.32-4.585,1.34c-1.289,1.021-2.251,2.386-3.197,3.731
				c-0.451,0.641-0.921,1.3-1.592,1.704c-0.672,0.403-1.604,0.483-2.199-0.026c-0.651-0.556-0.664-1.539-0.625-2.395l0.278-6.076
				c0.043-0.956-0.495-1.827-1.348-2.262c-1.238-0.63-2.182-1.789-2.722-3.132c-0.467-1.163-0.668-2.402-0.769-3.656
				c-0.082-1.01-1.109-1.654-2.049-1.275C344.879,78.332,334.711,78.479,326.3,76.317z"/>
			<g>
				<polygon style="fill:#F28F8F;" points="339.666,91.054 334.201,100.253 340.717,101.476 				"/>
				<path style="fill:#F28F8F;" d="M338.686,108.997c2.23-0.606,4.461-1.211,6.691-1.817c-0.628-1.561-2.758-2.592-4.395-2.201
					C339.346,105.37,338.54,107.321,338.686,108.997z"/>
				<path style="opacity:0.3;" d="M338.686,108.997c2.23-0.606,4.461-1.211,6.691-1.817c-0.628-1.561-2.758-2.592-4.395-2.201
					C339.346,105.37,338.54,107.321,338.686,108.997z"/>
				<path style="fill:#263238;" d="M333.121,86.732c-1.595-0.532-3.19-1.063-4.784-1.595c0.54-0.919,1.799-1.37,2.835-1.115
					C332.207,84.277,333.069,85.667,333.121,86.732z"/>
				<path style="fill:#263238;" d="M344.081,85.8c1.586-0.556,3.173-1.113,4.759-1.669c-0.555-0.91-1.821-1.341-2.852-1.071
					C344.957,83.331,344.117,84.734,344.081,85.8z"/>
				<path style="fill:#F28F8F;" d="M343.872,105.534c-0.698,0.144-2.598,0.991-2.74,2.799c1.726-0.469,2.519-0.684,4.246-1.153
					C345.105,106.504,344.545,105.939,343.872,105.534z"/>
				<path style="fill:#263238;" d="M347.655,89.802c0.367-0.244,0.733-0.451,1.065-0.599c-0.846-0.383-1.911-0.219-2.602,0.401
					c-0.691,0.62-1.026,1.675-0.737,2.557c1.332-1.021,3.459-1.48,4.915-1.436C349.665,89.974,348.619,89.634,347.655,89.802z"/>
				<path style="fill:#263238;" d="M330.861,90.48c-0.367-0.244-0.733-0.451-1.065-0.599c0.846-0.383,1.911-0.219,2.602,0.401
					c0.691,0.62,1.026,1.675,0.737,2.557c-1.332-1.021-3.459-1.48-4.915-1.436C328.851,90.651,329.897,90.311,330.861,90.48z"/>
			</g>
		</g>
		<g>
			<path style="fill:#455A64;" d="M327.569,70.479l3.259-8.545c1.568-4.11,5.204-7.108,9.555-7.762
				c8.161-1.227,17.645-0.421,24.419,3.613c3.499,2.084,5.604,5.916,5.734,9.986c0.247,7.731-1.31,12.668-1.31,12.668
				c-3.15-1.636-9.32-3.89-9.32-3.89L327.569,70.479z"/>
			<path style="fill:#BA68C8;" d="M359.906,76.549c-5.033,2.518-10.31,5.095-15.937,5.039c-6.185-0.061-12.116-3.32-18.275-2.749
				c-1.497,0.139-9.142,2.75-9.84-0.934c-0.228-1.206,1.95-3.056,2.393-3.365c2.764-1.929,6.139-2.955,9.322-4.063
				C337.817,66.914,349.969,72.193,359.906,76.549z"/>
			<path style="opacity:0.3;" d="M359.906,76.549c-5.033,2.518-10.31,5.095-15.937,5.039c-6.185-0.061-12.116-3.32-18.275-2.749
				c-1.497,0.139-9.142,2.75-9.84-0.934c-0.228-1.206,1.95-3.056,2.393-3.365c2.764-1.929,6.139-2.955,9.322-4.063
				C337.817,66.914,349.969,72.193,359.906,76.549z"/>
			<path style="opacity:0.2;fill:#FFFFFF;" d="M343.505,79.338c-3.265-0.514-6.415-1.575-9.626-2.358
				c-3.211-0.783-6.569-1.288-9.815-0.667c-1.585,0.303-3.132,0.873-4.746,0.916c-1.026,0.028-2.118-0.224-2.957-0.785
				c-0.352,0.502-0.59,1.024-0.507,1.461c0.698,3.683,8.343,1.072,9.84,0.934c6.159-0.571,12.09,2.689,18.275,2.749
				c3.946,0.039,7.716-1.225,11.354-2.847C351.474,79.727,347.43,79.956,343.505,79.338z"/>
		</g>
		<g>
			<g>
				<path style="fill:#BA68C8;" d="M322.127,291.933c-0.085,0-0.171-0.018-0.252-0.056c-3.01-1.398-4.56-5.204-3.386-8.307
					c0.203-0.537,0.475-1.057,0.74-1.561c0.571-1.09,1.111-2.119,0.85-3.122c-0.197-0.758-0.831-1.394-1.5-2.068
					c-0.887-0.89-1.891-1.9-1.784-3.327c0.092-1.231,0.987-2.067,1.776-2.804c0.597-0.557,1.161-1.084,1.388-1.727
					c0.282-0.797,0.057-1.786-0.706-3.113l-0.251-0.429c-0.602-1.019-1.224-2.072-1.275-3.325c-0.037-0.927,0.398-1.911,1.11-2.507
					c0.559-0.467,1.224-0.645,1.876-0.502c0.322,0.071,0.527,0.39,0.456,0.713c-0.071,0.323-0.385,0.528-0.713,0.456
					c-0.368-0.083-0.663,0.092-0.852,0.251c-0.424,0.355-0.704,0.99-0.681,1.542c0.037,0.952,0.557,1.833,1.109,2.765l0.258,0.439
					c0.598,1.04,1.331,2.597,0.797,4.11c-0.325,0.918-1.023,1.57-1.7,2.202c-0.72,0.672-1.341,1.253-1.398,2.019
					c-0.068,0.882,0.63,1.583,1.438,2.394c0.752,0.757,1.532,1.54,1.81,2.61c0.376,1.45-0.297,2.735-0.949,3.979
					c-0.258,0.493-0.502,0.958-0.68,1.428c-0.945,2.497,0.35,5.673,2.771,6.8c0.299,0.139,0.429,0.494,0.29,0.794
					C322.569,291.804,322.353,291.933,322.127,291.933z"/>
			</g>
			<g>
				<path style="fill:#BA68C8;" d="M313.659,281.864c-0.174,0-0.347-0.076-0.465-0.222c-0.208-0.257-0.168-0.633,0.089-0.841
					c0.562-0.454,0.874-1.301,0.814-2.21c-0.06-0.909-0.44-1.806-0.844-2.64l-0.22-0.449c-0.411-0.834-0.836-1.698-1.047-2.653
					c-0.305-1.376-0.06-2.678,0.674-3.569c0.332-0.403,0.737-0.697,1.129-0.982c0.453-0.329,0.88-0.639,1.083-1.054
					c0.398-0.812-0.09-1.866-0.678-2.883c-0.165-0.286-0.066-0.652,0.22-0.818c0.288-0.164,0.652-0.066,0.818,0.22
					c0.47,0.816,1.448,2.512,0.715,4.007c-0.334,0.682-0.929,1.115-1.453,1.495c-0.347,0.253-0.675,0.491-0.91,0.776
					c-0.491,0.596-0.651,1.55-0.429,2.55c0.18,0.814,0.555,1.576,0.952,2.383l0.223,0.457c0.456,0.943,0.888,1.969,0.96,3.083
					c0.085,1.31-0.384,2.512-1.256,3.217C313.925,281.821,313.792,281.864,313.659,281.864z"/>
			</g>
			<g>
				<path style="fill:#BA68C8;" d="M365.115,307.887c-0.297,0-0.554-0.221-0.592-0.522c-0.042-0.328,0.19-0.627,0.517-0.669
					c1.16-0.147,1.952-1.376,2.136-2.513c0.182-1.13-0.042-2.284-0.28-3.506l-0.105-0.553c-0.27-1.439-0.459-3.109,0.184-4.583
					c0.457-1.049,1.269-1.883,2.053-2.688c0.995-1.021,1.936-1.986,1.916-3.202c-0.015-0.931-0.604-1.785-1.228-2.691
					c-0.74-1.072-1.504-2.181-1.41-3.565c0.066-0.973,0.549-1.769,1.016-2.539c0.194-0.319,0.389-0.639,0.548-0.971
					c0.993-2.077,0.284-4.864-1.582-6.212c-0.267-0.194-0.328-0.568-0.134-0.835c0.194-0.268,0.567-0.326,0.836-0.134
					c2.35,1.7,3.212,5.08,1.96,7.697c-0.175,0.367-0.39,0.722-0.605,1.077c-0.41,0.676-0.798,1.315-0.845,1.999
					c-0.065,0.966,0.549,1.859,1.201,2.804c0.697,1.012,1.418,2.057,1.439,3.351c0.027,1.713-1.133,2.904-2.255,4.055
					c-0.71,0.729-1.444,1.483-1.814,2.332c-0.511,1.174-0.352,2.561-0.104,3.886l0.105,0.544c0.246,1.271,0.502,2.586,0.285,3.924
					c-0.245,1.527-1.34,3.277-3.164,3.51C365.167,307.886,365.141,307.887,365.115,307.887z"/>
			</g>
			<g>
				<path style="fill:#BA68C8;" d="M371.069,303.456c-0.183,0-0.366-0.085-0.482-0.245c-0.195-0.266-0.138-0.64,0.13-0.835
					c0.685-0.502,0.713-1.629,0.615-2.486l-0.053-0.437c-0.126-1.001-0.27-2.136,0.235-3.154c0.507-1.019,1.451-1.553,2.363-2.068
					c0.675-0.382,1.314-0.743,1.726-1.271c0.944-1.21,0.51-3.051-0.209-4.368c-0.314-0.575-0.681-1.115-1.07-1.687
					c-0.627-0.922-1.275-1.874-1.673-2.971c-0.706-1.938-0.301-4.497,1.598-5.422c0.294-0.142,0.656-0.022,0.799,0.276
					c0.145,0.297,0.022,0.654-0.276,0.799c-1.276,0.623-1.511,2.528-0.998,3.938c0.348,0.957,0.925,1.807,1.538,2.707
					c0.388,0.571,0.79,1.16,1.131,1.785c0.903,1.652,1.404,4.011,0.104,5.679c-0.56,0.716-1.333,1.153-2.081,1.576
					c-0.791,0.447-1.538,0.869-1.88,1.56c-0.345,0.694-0.236,1.557-0.12,2.472l0.055,0.452c0.192,1.679-0.188,2.92-1.098,3.586
					C371.316,303.419,371.192,303.456,371.069,303.456z"/>
			</g>
			<g>
				<path style="fill:#BA68C8;" d="M405.341,318.415c-0.559,0-1.098-0.188-1.58-0.554c-0.895-0.679-1.583-2.005-1.754-3.379
					c-0.047-0.374-0.076-0.758-0.105-1.143c-0.1-1.303-0.194-2.533-0.944-3.368c-0.466-0.518-1.158-0.839-1.89-1.179
					c-0.986-0.458-2.005-0.932-2.597-1.949c-0.804-1.382-0.356-2.855,0.075-4.282c0.313-1.033,0.609-2.009,0.44-2.908
					c-0.188-1.004-0.938-1.811-1.731-2.665c-0.329-0.355-0.659-0.71-0.952-1.082c-0.827-1.046-1.231-2.44-1.029-3.556
					c0.135-0.743,0.528-1.328,1.137-1.695c0.285-0.166,0.652-0.079,0.821,0.204c0.169,0.283,0.078,0.651-0.204,0.821
					c-0.314,0.188-0.502,0.478-0.576,0.883c-0.139,0.768,0.185,1.837,0.789,2.599c0.276,0.347,0.584,0.679,0.891,1.011
					c0.875,0.942,1.778,1.915,2.031,3.258c0.223,1.186-0.13,2.351-0.471,3.476c-0.39,1.289-0.728,2.402-0.186,3.333
					c0.403,0.692,1.212,1.068,2.067,1.465c0.81,0.376,1.646,0.764,2.277,1.464c1.021,1.139,1.136,2.632,1.247,4.076
					c0.028,0.367,0.055,0.732,0.099,1.088c0.131,1.053,0.65,2.087,1.29,2.573c0.335,0.255,0.68,0.348,1.055,0.296
					c0.324-0.044,0.631,0.175,0.68,0.502c0.049,0.327-0.175,0.631-0.502,0.68C405.591,318.406,405.466,318.415,405.341,318.415z"/>
			</g>
			<g>
				<path style="fill:#BA68C8;" d="M397.764,315.287c-0.096,0-0.192-0.022-0.282-0.07c-0.292-0.157-0.402-0.519-0.246-0.81
					c0.445-0.832,0.071-1.885-0.382-2.533c-0.466-0.665-1.109-1.195-1.789-1.757l-0.529-0.443c-0.817-0.699-1.798-1.666-2.147-2.959
					c-0.341-1.269-0.01-2.574,0.397-3.795l0.103-0.304c0.338-0.999,0.655-1.94,0.586-2.887c-0.064-0.893-0.645-1.879-1.507-1.986
					c-0.328-0.041-0.561-0.34-0.52-0.667c0.04-0.328,0.34-0.567,0.667-0.52c1.528,0.19,2.456,1.733,2.554,3.087
					c0.086,1.186-0.286,2.289-0.647,3.355l-0.1,0.3c-0.326,0.973-0.65,2.095-0.379,3.104c0.264,0.977,1.085,1.776,1.771,2.362
					l0.513,0.429c0.712,0.589,1.448,1.196,2.006,1.993c0.68,0.971,1.158,2.474,0.459,3.783
					C398.183,315.173,397.976,315.287,397.764,315.287z"/>
			</g>
			<g>
				<path style="fill:#BA68C8;" d="M449.102,315.421c-0.294,0-0.551-0.218-0.591-0.519c-0.044-0.327,0.186-0.629,0.513-0.672
					c0.74-0.099,1.226-0.582,1.502-0.97c0.563-0.786,0.801-1.926,0.609-2.903c-0.322-1.625-1.435-3.035-2.509-4.4l-0.323-0.411
					c-1.252-1.604-2.522-3.535-2.443-5.7c0.042-1.12,0.435-2.192,0.814-3.227c0.514-1.4,0.999-2.721,0.498-3.908
					c-0.398-0.945-1.332-1.551-2.321-2.192c-0.937-0.607-1.904-1.235-2.534-2.217c-0.817-1.277-0.849-2.869-0.875-4.15
					c-0.028-1.367-0.102-2.574-0.73-3.497c-0.335-0.492-0.933-0.855-1.522-0.927c-0.279-0.035-0.685-0.014-1.005,0.273
					c-0.246,0.22-0.625,0.201-0.845-0.046c-0.221-0.245-0.2-0.624,0.046-0.845c0.512-0.458,1.208-0.661,1.948-0.571
					c0.931,0.113,1.838,0.665,2.367,1.442c0.813,1.192,0.908,2.642,0.938,4.146c0.025,1.188,0.051,2.535,0.686,3.528
					c0.49,0.764,1.31,1.296,2.178,1.858c1.097,0.712,2.232,1.448,2.774,2.732c0.683,1.622,0.093,3.229-0.477,4.785
					c-0.348,0.948-0.708,1.928-0.742,2.859c-0.065,1.775,1.013,3.414,2.189,4.92l0.319,0.407c1.162,1.476,2.365,3.001,2.743,4.908
					c0.258,1.305-0.051,2.774-0.809,3.832c-0.595,0.831-1.396,1.336-2.317,1.458C449.155,315.419,449.128,315.421,449.102,315.421z"
					/>
			</g>
			<g>
				<path style="fill:#BA68C8;" d="M453.387,308.211c-0.064,0-0.13-0.01-0.194-0.033c-0.312-0.106-0.479-0.446-0.371-0.759
					c0.347-1.018-0.439-2.174-0.938-2.774c-0.174-0.209-0.356-0.412-0.539-0.617c-0.671-0.751-1.363-1.527-1.694-2.547
					c-0.554-1.706,0.098-3.347,0.728-4.934c0.522-1.315,1.015-2.559,0.835-3.783c-0.204-1.389-1.311-2.562-2.126-3.324
					c-0.232-0.217-0.472-0.431-0.711-0.645c-0.881-0.786-1.792-1.599-2.45-2.647c-0.848-1.354-1.224-3.374-0.155-4.833
					c0.195-0.264,0.569-0.323,0.837-0.129c0.266,0.195,0.324,0.57,0.129,0.837c-0.738,1.007-0.429,2.478,0.204,3.49
					c0.567,0.904,1.376,1.626,2.233,2.39c0.247,0.22,0.492,0.439,0.731,0.664c0.946,0.884,2.235,2.264,2.494,4.024
					c0.225,1.541-0.35,2.994-0.908,4.399c-0.577,1.453-1.123,2.827-0.702,4.123c0.253,0.781,0.833,1.43,1.447,2.118
					c0.193,0.215,0.383,0.43,0.566,0.648c1.14,1.368,1.549,2.763,1.151,3.928C453.868,308.054,453.636,308.211,453.387,308.211z"/>
			</g>
			<g>
				<path style="fill:#BA68C8;" d="M431.147,196.332c-0.284,0-0.536-0.204-0.588-0.494c-0.057-0.325,0.16-0.636,0.485-0.693
					c1.48-0.261,2.331-2,2.298-3.531c-0.028-1.362-0.535-2.657-1.071-4.028c-0.127-0.326-0.255-0.651-0.375-0.976
					c-0.556-1.503-1.199-3.732-0.363-5.73c0.346-0.829,0.914-1.554,1.461-2.254c0.845-1.079,1.575-2.012,1.402-3.098
					c-0.183-1.162-1.342-1.857-2.57-2.592c-1.279-0.766-2.601-1.559-3.124-2.999c-0.464-1.276-0.105-2.531,0.241-3.745
					c0.214-0.747,0.415-1.453,0.428-2.145c0.025-1.356-0.803-2.73-2.012-3.341c-1.21-0.612-2.805-0.464-3.883,0.359
					c-0.263,0.2-0.638,0.152-0.839-0.112c-0.2-0.262-0.151-0.638,0.112-0.838c1.45-1.109,3.52-1.301,5.15-0.477
					c1.63,0.824,2.702,2.604,2.668,4.431c-0.016,0.847-0.249,1.663-0.473,2.451c-0.308,1.078-0.598,2.097-0.268,3.008
					c0.379,1.041,1.465,1.692,2.615,2.382c1.409,0.844,2.866,1.717,3.138,3.43c0.255,1.601-0.71,2.833-1.643,4.024
					c-0.499,0.637-1.015,1.297-1.3,1.978c-0.672,1.608-0.104,3.54,0.382,4.854c0.118,0.318,0.243,0.636,0.367,0.954
					c0.551,1.408,1.121,2.865,1.154,4.44c0.042,2.007-1.095,4.348-3.286,4.734C431.217,196.329,431.182,196.332,431.147,196.332z"/>
			</g>
			<g>
				<path style="fill:#BA68C8;" d="M436.596,190.957c-0.068,0-0.137-0.012-0.204-0.036c-0.311-0.113-0.471-0.456-0.358-0.766
					c0.382-1.052-0.176-2.192-0.769-3.399c-0.609-1.241-1.238-2.525-0.998-3.936c0.195-1.142,0.904-2,1.589-2.83
					c0.327-0.395,0.634-0.769,0.885-1.164c1.138-1.808,0.946-4.393-0.444-6.013c-0.432-0.503-0.959-0.922-1.519-1.366
					c-0.612-0.487-1.245-0.99-1.768-1.628c-1.592-1.941-1.764-4.885-0.409-6.999c0.179-0.279,0.551-0.358,0.826-0.181
					c0.278,0.178,0.36,0.548,0.181,0.827c-1.066,1.662-0.925,4.068,0.327,5.595c0.442,0.539,0.998,0.981,1.587,1.449
					c0.578,0.46,1.176,0.935,1.681,1.523c1.748,2.035,1.979,5.159,0.549,7.429c-0.29,0.461-0.637,0.882-0.973,1.289
					c-0.612,0.742-1.19,1.442-1.332,2.27c-0.176,1.03,0.342,2.088,0.893,3.209c0.675,1.379,1.375,2.805,0.818,4.335
					C437.07,190.806,436.84,190.957,436.596,190.957z"/>
			</g>
			<g>
				<path style="fill:#BA68C8;" d="M287.274,94.816c-0.131,0-0.262-0.042-0.371-0.129c-0.258-0.204-0.303-0.581-0.098-0.84
					l3.052-3.857c0.37-0.468,1.23-1.572,2.443-1.351c0.761,0.137,1.187,0.709,1.564,1.213c0.238,0.318,0.463,0.619,0.727,0.75
					c0.409,0.204,0.98,0.003,1.375-0.251c0.27-0.175,0.515-0.384,0.761-0.593c0.284-0.24,0.568-0.479,0.879-0.681
					c1.214-0.788,2.809-0.964,4.167-0.456c1.356,0.508,2.445,1.689,2.841,3.082c0.091,0.318-0.093,0.648-0.411,0.739
					c-0.32,0.091-0.648-0.095-0.738-0.412c-0.294-1.034-1.104-1.911-2.112-2.289c-1.008-0.378-2.194-0.247-3.095,0.339
					c-0.269,0.174-0.512,0.383-0.756,0.59c-0.285,0.243-0.571,0.483-0.886,0.686c-0.872,0.562-1.828,0.68-2.557,0.318
					c-0.519-0.257-0.855-0.708-1.152-1.105c-0.28-0.374-0.522-0.699-0.819-0.752c-0.454-0.082-0.952,0.484-1.292,0.915l-3.05,3.857
					C287.626,94.738,287.451,94.816,287.274,94.816z"/>
			</g>
			<g>
				<path style="fill:#BA68C8;" d="M287.469,90.131c-0.137,0-0.273-0.046-0.387-0.141c-0.251-0.213-0.284-0.591-0.07-0.843
					c0.707-0.837,1.509-1.785,2.542-2.439c1.21-0.765,2.603-0.976,3.726-0.567c0.331,0.121,0.621,0.286,0.901,0.445
					c0.258,0.147,0.502,0.285,0.749,0.371c0.789,0.275,1.741,0.009,2.27-0.634c0.21-0.257,0.588-0.293,0.841-0.082
					c0.256,0.21,0.292,0.587,0.083,0.842c-0.852,1.036-2.33,1.448-3.59,1.003c-0.347-0.121-0.65-0.293-0.943-0.459
					c-0.235-0.133-0.469-0.269-0.722-0.362c-0.778-0.285-1.775-0.114-2.676,0.454c-0.877,0.555-1.584,1.391-2.268,2.2
					C287.808,90.059,287.639,90.131,287.469,90.131z"/>
			</g>
			<g>
				<path style="fill:#BA68C8;" d="M410.866,126.813c-0.048,0-0.097-0.006-0.145-0.018c-0.321-0.08-0.515-0.405-0.436-0.725
					c0.686-2.739,0.319-5.738-1.006-8.23c-1.327-2.492-3.609-4.473-6.262-5.434c-0.311-0.113-0.472-0.456-0.359-0.766
					c0.112-0.311,0.459-0.469,0.765-0.359c2.929,1.061,5.448,3.247,6.912,5.997c1.463,2.75,1.867,6.061,1.111,9.083
					C411.378,126.632,411.135,126.813,410.866,126.813z"/>
			</g>
			<g>
				<path style="fill:#BA68C8;" d="M413.812,121.676c-0.037,0-0.075-0.003-0.113-0.01c-0.325-0.062-0.537-0.375-0.475-0.699
					c0.489-2.571-0.528-5.429-2.532-7.112c-0.254-0.212-0.286-0.589-0.074-0.842c0.213-0.254,0.589-0.286,0.842-0.074
					c2.361,1.983,3.516,5.222,2.938,8.251C414.343,121.476,414.093,121.676,413.812,121.676z"/>
			</g>
			<g>
				<path style="fill:#BA68C8;" d="M224.195,149.204c-0.268,0-0.512-0.182-0.58-0.454c-2.15-8.648,0.457-18.381,6.643-24.795
					c0.23-0.238,0.608-0.245,0.846-0.015c0.238,0.229,0.245,0.608,0.015,0.846c-5.907,6.125-8.397,15.418-6.343,23.676
					c0.079,0.321-0.116,0.645-0.436,0.725C224.292,149.198,224.243,149.204,224.195,149.204z"/>
			</g>
			<g>
				<path style="fill:#BA68C8;" d="M219.116,140.548c-0.007,0-0.015,0-0.021-0.001c-0.331-0.012-0.588-0.289-0.577-0.619
					c0.197-5.538,1.734-11.021,4.446-15.855c0.161-0.289,0.526-0.392,0.814-0.229c0.288,0.161,0.391,0.526,0.229,0.814
					c-2.618,4.669-4.103,9.963-4.294,15.312C219.702,140.294,219.436,140.548,219.116,140.548z"/>
			</g>
			<g>
				<path style="fill:#BA68C8;" d="M228.826,222.153c-0.104,0-0.21-0.027-0.305-0.084c-3.22-1.917-5.757-4.89-7.145-8.373
					c-1.387-3.482-1.588-7.386-0.568-10.993c0.09-0.318,0.421-0.505,0.738-0.412c0.318,0.09,0.502,0.421,0.412,0.738
					c-0.949,3.354-0.761,6.985,0.528,10.224c1.291,3.239,3.651,6.005,6.646,7.787c0.284,0.169,0.377,0.536,0.208,0.82
					C229.229,222.049,229.03,222.153,228.826,222.153z"/>
			</g>
			<g>
				<path style="fill:#BA68C8;" d="M220.383,218.969c-0.153,0-0.305-0.058-0.422-0.175c-2.92-2.913-4.449-7.105-4.091-11.214
					c0.029-0.329,0.331-0.574,0.648-0.544c0.329,0.029,0.572,0.319,0.544,0.648c-0.328,3.76,1.072,7.596,3.744,10.262
					c0.234,0.233,0.234,0.612,0.001,0.846C220.69,218.911,220.536,218.969,220.383,218.969z"/>
			</g>
		</g>
	</g>
</g>
</svg>
